<svg width="193" height="50" viewBox="0 0 193 50" fill="none" xmlns="http://www.w3.org/2000/svg">
<g clip-path="url(#clip0_3510_38501)">
<path fill-rule="evenodd" clip-rule="evenodd" d="M9.11521 27.204C9.11521 27.204 9.15384 26.528 8.57448 25.8714C7.97582 25.1955 5.98669 25.1955 5.13696 24.9445C4.28724 24.6934 4.22931 24.0561 4.22931 24.0561V21.4683C4.22931 21.4683 4.26793 22.0863 5.13696 22.3567C5.98669 22.6077 7.97582 22.6077 8.57448 23.2836C9.15384 23.9402 9.11521 24.6162 9.11521 24.6162V27.204Z" fill="#D3AF4A"/>
<path fill-rule="evenodd" clip-rule="evenodd" d="M9.11521 33.4224C9.11521 33.4224 9.15384 32.7464 8.57448 32.0898C7.97582 31.4139 5.98669 31.4139 5.13696 31.1629C4.28724 30.9118 4.22931 30.2745 4.22931 30.2745V27.6867C4.22931 27.6867 4.26793 28.3047 5.13696 28.5751C5.98669 28.8261 7.97582 28.8261 8.57448 29.5021C9.15384 30.1587 9.11521 30.8346 9.11521 30.8346V33.4224Z" fill="#D3AF4A"/>
<path fill-rule="evenodd" clip-rule="evenodd" d="M6.64318 3.75932C6.5273 3.83656 6.39212 4.06831 6.27625 4.2228C6.16038 4.3773 6.00588 4.49317 6.10244 4.68629C6.21831 4.91803 6.50799 5.57463 6.64318 5.74844C6.77836 5.59394 7.06803 4.93734 7.18391 4.68629C7.28047 4.47385 7.10666 4.33867 6.99079 4.18418C6.89423 4.06831 6.75905 3.83656 6.64318 3.75932ZM8.8061 6.52091L9.59789 4.89872L8.7868 5.09183L8.8061 6.52091ZM4.55749 6.5016V5.07252L3.74639 4.89872L4.55749 6.5016ZM6.6818 1.73157C6.97147 2.44611 7.41565 3.39239 8.03363 4.08762C8.49711 4.60904 8.28468 4.47385 7.93707 5.24633C7.76326 5.63257 7.51221 6.1733 7.55083 6.63679C8.13019 6.57885 8.26537 5.43945 8.34262 4.93734C8.40055 4.62835 8.43918 4.5511 8.72886 4.45454C9.7717 4.12624 9.73307 4.41592 10.7373 3.4117C10.8725 3.27652 10.9111 3.23789 11.0077 3.31514C11.1235 3.50826 10.6794 4.16486 10.5635 4.41592C10.0034 5.57463 9.34684 6.67541 9.15372 7.96931H4.30644C4.11332 6.71403 3.4374 5.55532 2.89667 4.43523C2.81942 4.30005 2.10488 3.17996 2.54905 3.29583L3.36015 4.01037C4.07469 4.5511 4.94373 4.12624 5.07891 4.8794C5.17547 5.40083 5.27203 6.55954 5.8707 6.61747C5.90932 6.15399 5.65827 5.63257 5.48446 5.24633C5.3879 5.0339 5.29134 4.86009 5.19478 4.68629C5.00167 4.3773 5.19478 4.26142 5.34928 4.08762C5.92863 3.43101 6.37281 2.36886 6.6818 1.73157Z" fill="#D3AF4A"/>
<path d="M42.7371 2.27232C42.7371 2.36888 42.6406 2.58131 42.4474 2.90962C42.2543 3.23792 41.984 3.74003 41.675 4.39663C41.5205 4.72493 41.366 5.07255 41.1922 5.40085C41.0184 5.72915 40.8446 6.09608 40.6901 6.42438C40.5163 6.77199 40.3618 7.10029 40.2266 7.40928C40.0914 7.71827 39.9562 8.02727 39.8403 8.29763C39.7051 8.62593 39.57 8.99286 39.3962 9.41772C39.2224 9.84258 39.0679 10.2674 38.9327 10.6923C38.7782 11.1172 38.6623 11.5034 38.5658 11.851C38.4692 12.1986 38.4112 12.4497 38.4112 12.6235C38.4112 12.778 38.4499 12.8745 38.5271 12.9132C38.6044 12.9325 38.7009 12.9518 38.7782 12.9518C38.8747 12.9518 38.9906 12.9325 39.1065 12.8745C39.2224 12.8166 39.3382 12.778 39.4348 12.7201C39.5507 12.6428 39.6665 12.5656 39.7824 12.4883L39.9369 12.8552C39.8017 12.9711 39.6086 13.1256 39.3962 13.2994C39.1644 13.4732 38.9327 13.6663 38.6623 13.8401C38.3919 14.0139 38.1216 14.1684 37.8319 14.2843C37.5422 14.4002 37.2719 14.4774 37.0401 14.4774C36.9049 14.4774 36.7891 14.4581 36.6925 14.4002C36.5959 14.3423 36.5573 14.2457 36.5573 14.0719C36.5573 13.956 36.5959 13.7436 36.6925 13.396C36.7891 13.0677 36.9435 12.6042 37.156 12.0248C37.3298 11.5227 37.5422 10.982 37.774 10.4026C38.0057 9.82327 38.2374 9.26323 38.4885 8.70318C38.7202 8.14314 38.952 7.62172 39.1451 7.13892C39.3575 6.65612 39.512 6.25057 39.6665 5.92227L39.5507 5.88365C39.2803 6.15401 39.0292 6.44369 38.7782 6.71406C38.5271 7.00373 38.2181 7.33204 37.8705 7.71828C37.5229 8.10451 37.0787 8.568 36.5573 9.10873C36.0359 9.64946 35.3793 10.3061 34.5875 11.0979C34.2399 11.4455 33.9309 11.7545 33.6605 12.0248C33.3902 12.2952 33.1198 12.5656 32.8494 12.8166C32.5791 13.0677 32.328 13.2994 32.0576 13.5312C31.7873 13.7629 31.4976 13.9946 31.1693 14.2264C31.0534 14.3229 30.8796 14.4195 30.6479 14.5161C30.4161 14.6126 30.2037 14.6706 29.972 14.6706C29.7982 14.6706 29.663 14.6126 29.605 14.5161C29.5278 14.4195 29.5085 14.265 29.5085 14.0526C29.5085 13.8788 29.5664 13.6084 29.6823 13.2415C29.7982 12.8745 29.9333 12.4497 30.1071 12.0055C30.2809 11.542 30.4548 11.0785 30.6672 10.5957C30.8603 10.1129 31.0534 9.66878 31.2079 9.30185C31.7487 8.04658 32.2508 6.86855 32.7142 5.8064C33.1777 4.72493 33.6992 3.64347 34.2399 2.562H34.1626C33.9888 2.73581 33.6991 3.06411 33.2936 3.5276C32.888 4.01039 32.3859 4.55113 31.8452 5.20773C31.2852 5.84502 30.6865 6.54025 30.0299 7.2741C29.3733 8.00795 28.736 8.72249 28.0987 9.39841C27.7511 9.76533 27.3842 10.1709 26.9786 10.5957C26.5731 11.0206 26.1675 11.4455 25.7233 11.8896C25.2985 12.3145 24.8543 12.7394 24.4101 13.1449C23.966 13.5505 23.5218 13.9174 23.1162 14.2264C22.6914 14.5354 22.2858 14.7864 21.8996 14.9795C21.5133 15.1727 21.1657 15.2692 20.8568 15.2692C20.4705 15.2692 20.2581 15.0761 20.2581 14.6899C20.2581 14.3423 20.374 13.9946 20.625 13.6663C20.8761 13.3187 21.1657 13.029 21.5133 12.8166H21.7258C21.7065 12.8745 21.7065 12.9325 21.7065 12.9711C21.7065 13.0097 21.7065 13.0677 21.7065 13.1063C21.7065 13.1642 21.7065 13.2222 21.7258 13.2994C21.7451 13.3767 21.7644 13.4346 21.803 13.5118C21.8417 13.5891 21.9189 13.647 21.9961 13.6856C22.0734 13.7243 22.1893 13.7629 22.3245 13.7629C22.421 13.7629 22.5176 13.7436 22.6528 13.705C22.7879 13.6663 22.9424 13.5891 23.1162 13.4732C23.3094 13.3573 23.5218 13.2028 23.7728 13.0097C24.0239 12.8166 24.3136 12.5462 24.6419 12.2373C25.4916 11.4068 26.2834 10.6151 27.0559 9.84258C27.8283 9.07011 28.5622 8.27832 29.2767 7.50584C29.9913 6.71406 30.6865 5.92227 31.3817 5.11117C32.077 4.30007 32.7529 3.45035 33.4481 2.562C33.1584 2.50407 32.888 2.46544 32.6177 2.44613C32.3473 2.42682 31.9997 2.40751 31.5555 2.40751C31.1693 2.40751 30.6286 2.42682 29.9913 2.44613C29.3347 2.46544 28.6008 2.58131 27.7897 2.75512C26.9786 2.92893 26.071 3.19929 25.1054 3.56622C24.1398 3.93315 23.1549 4.45457 22.1313 5.13048C21.7451 5.40085 21.3975 5.67121 21.0692 5.94158C20.7409 6.23126 20.4705 6.50163 20.2388 6.77199C20.007 7.04236 19.8332 7.31273 19.698 7.56378C19.5629 7.81483 19.5049 8.04658 19.5049 8.25901C19.5049 8.4135 19.5435 8.51006 19.6401 8.58731C19.7367 8.66456 19.8525 8.68387 19.9877 8.68387C20.1422 8.68387 20.2774 8.66456 20.4126 8.62593C20.5478 8.58731 20.6829 8.52937 20.8568 8.45213V8.68387C20.625 8.97355 20.3353 9.18598 19.9491 9.32116C19.5822 9.45634 19.2346 9.53359 18.9063 9.53359C18.3655 9.53359 18.0758 9.30185 18.0758 8.83836C18.0758 8.45213 18.2303 8.06589 18.52 7.64103C18.829 7.21617 19.1959 6.81062 19.6401 6.42438C20.0843 6.03814 20.5671 5.6519 21.0692 5.3236C21.5713 4.97599 22.0348 4.68631 22.4403 4.45457C23.5025 3.8559 24.5453 3.3731 25.6075 3.02549C26.6503 2.67787 27.6352 2.40751 28.5429 2.2337C29.4505 2.05989 30.2423 1.94402 30.9376 1.88608C31.6328 1.84746 32.1542 1.80884 32.5018 1.80884C33.0619 1.80884 33.5447 1.82815 33.9502 1.84746C34.3558 1.86677 34.7034 1.9054 34.9931 1.92471C35.3214 1.96333 35.611 2.00196 35.8621 2.02127C35.7655 2.15645 35.6497 2.38819 35.4759 2.7165C35.302 3.0448 35.1282 3.39241 34.9351 3.79796C34.742 4.20351 34.5296 4.64769 34.3171 5.11117C34.1047 5.57466 33.9116 6.01883 33.7185 6.463C33.3708 7.25479 33.0619 7.98864 32.7722 8.68387C32.4825 9.3791 32.2314 9.99708 32.019 10.5378C31.8066 11.0785 31.6521 11.5613 31.5169 11.9476C31.401 12.3338 31.3431 12.6235 31.3431 12.7973C31.3431 12.8552 31.3431 12.8939 31.3624 12.9518C31.3817 12.9904 31.4204 13.0097 31.5169 13.0097C31.6328 13.0097 31.9031 12.8359 32.3473 12.4883C32.7915 12.1407 33.3709 11.6 34.124 10.8661C34.2592 10.7309 34.4716 10.4992 34.7999 10.1709C35.1089 9.84258 35.4952 9.45634 35.92 9.01217C36.3449 8.568 36.8277 8.06589 37.3298 7.50584C37.8319 6.96511 38.334 6.38576 38.8554 5.8064C39.3382 5.26567 39.7245 4.76356 39.9755 4.33869C40.2459 3.91383 40.4776 3.54691 40.7094 3.25723C40.9218 2.96755 41.0956 2.77443 41.2501 2.65856C41.3853 2.54269 41.5591 2.46544 41.7715 2.38819C41.9067 2.34957 42.0419 2.31095 42.2157 2.31095C42.3895 2.29163 42.4861 2.29164 42.544 2.29164C42.6792 2.11783 42.7371 2.17576 42.7371 2.27232Z" fill="#D3AF4A"/>
<path d="M63.8836 1.88607C63.8836 2.05987 63.7291 2.33024 63.4202 2.65854C63.1112 2.98684 62.5704 3.4117 61.7786 3.95244C61.0834 4.41592 60.5041 4.80216 60.0213 5.11115C59.5385 5.42014 59.0943 5.69051 58.7274 5.92225C58.3411 6.15399 57.9935 6.38574 57.6652 6.57885C57.3369 6.77197 56.9893 7.02303 56.6417 7.27408C56.7769 7.54445 56.9507 7.91137 57.1245 8.43279C57.2983 8.9349 57.4721 9.47564 57.6652 10.055C57.8004 10.4605 57.9163 10.8854 58.0515 11.291C58.1866 11.6965 58.3218 12.0634 58.4763 12.3917C58.6308 12.72 58.7853 12.9711 58.9784 13.1642C59.1522 13.3573 59.3647 13.4732 59.5964 13.4732C59.8088 13.4732 60.0213 13.4346 60.2337 13.338C60.4654 13.2608 60.6586 13.1256 60.8324 12.9904L60.9869 13.1835C60.9482 13.2415 60.8517 13.338 60.6779 13.4925C60.5041 13.647 60.311 13.8015 60.0985 13.956C59.8668 14.1105 59.635 14.265 59.384 14.3809C59.1329 14.516 58.9012 14.574 58.6694 14.574C58.3798 14.574 58.148 14.4967 57.9742 14.3229C57.7811 14.1491 57.6266 13.9174 57.4721 13.6277C57.3176 13.338 57.1824 12.9904 57.0472 12.5848C56.9121 12.1986 56.7769 11.7544 56.6031 11.3103C56.5258 11.0978 56.4293 10.8275 56.3327 10.4799C56.2361 10.1322 56.1203 9.78463 56.0044 9.4177C55.8885 9.05077 55.7727 8.72247 55.6375 8.43279C55.5023 8.14312 55.3864 7.93069 55.2705 7.81481C55.0002 8.4328 54.7491 9.03146 54.4788 9.61082C54.2663 10.1129 54.0346 10.6343 53.7642 11.1944C53.5132 11.7544 53.2814 12.2372 53.0883 12.6428C52.9917 12.8745 52.8952 13.0676 52.8179 13.2221C52.7407 13.3766 52.6634 13.5118 52.5862 13.6084C52.5089 13.7243 52.4317 13.8015 52.3738 13.8787C52.2965 13.956 52.2193 14.0139 52.142 14.0719C51.9682 14.1877 51.7751 14.2843 51.5433 14.3422C51.3116 14.4195 51.1378 14.4388 51.0026 14.4388C50.9061 14.4388 50.8288 14.4195 50.8095 14.3809C50.7902 14.3422 50.7709 14.3036 50.7709 14.2457C50.7709 14.1877 50.8095 14.0719 50.9061 13.8981C51.0026 13.7242 51.1378 13.4539 51.3309 13.087C51.6785 12.4497 51.9682 11.8703 52.2193 11.3875C52.4703 10.8854 52.6827 10.4219 52.8952 9.95843C53.1076 9.49495 53.32 9.03146 53.5132 8.56798C53.7256 8.10449 53.9573 7.56376 54.2277 6.94578C54.4401 6.4823 54.6333 5.9995 54.865 5.47808C55.0774 4.97597 55.2705 4.51248 55.4637 4.08762C55.6375 3.66276 55.792 3.29583 55.9078 2.96753C56.0237 2.65854 56.101 2.44611 56.1396 2.34955C55.9851 2.33024 55.8306 2.33024 55.6954 2.31093C55.5602 2.29162 55.425 2.29162 55.2899 2.2723C55.1547 2.25299 55.0195 2.25299 54.9036 2.25299C54.4208 2.25299 53.8608 2.2723 53.2042 2.31093C52.5476 2.34955 51.833 2.44611 51.0412 2.61992C50.2495 2.79372 49.3804 3.06409 48.4534 3.43102C47.5265 3.79794 46.5609 4.30005 45.5567 4.95666C45.1704 5.22702 44.8035 5.49739 44.4752 5.76775C44.1469 6.05743 43.8765 6.3278 43.6448 6.59817C43.4131 6.86853 43.2392 7.1389 43.1234 7.38995C43.0075 7.64101 42.9496 7.87275 42.9496 8.08518C42.9496 8.18174 42.9882 8.2783 43.0461 8.37486C43.1041 8.47142 43.2392 8.52935 43.4517 8.52935C43.6255 8.52935 43.7607 8.51004 43.8765 8.47142C43.9924 8.43279 44.1469 8.37486 44.3207 8.29761V8.52935C44.031 8.81903 43.6834 9.03146 43.3165 9.16665C42.9496 9.30183 42.6213 9.37908 42.3702 9.37908C41.8295 9.37908 41.5398 9.14733 41.5398 8.68385C41.5398 8.33624 41.6943 7.96931 41.984 7.54445C42.293 7.11959 42.6599 6.71404 43.1041 6.30849C43.5482 5.90294 44.031 5.53601 44.5331 5.16909C45.0352 4.80216 45.4987 4.51248 45.9043 4.28074C46.9664 3.68207 48.0093 3.21859 48.9942 2.85166C49.9791 2.50405 50.9254 2.23368 51.833 2.05987C52.7407 1.88607 53.5904 1.7702 54.4015 1.71226C55.2126 1.65432 55.9658 1.63501 56.6417 1.63501C56.8734 1.63501 57.1245 1.65432 57.3949 1.69295C57.6652 1.73157 57.8583 1.75088 58.0128 1.77019L55.3864 7.54445C55.8499 7.21615 56.2748 6.94578 56.6417 6.69473C57.0086 6.44367 57.3755 6.21193 57.7231 5.98019C58.0708 5.74844 58.4377 5.5167 58.7853 5.26565C59.1329 5.01459 59.5578 4.74422 60.0213 4.41592C60.2337 4.28074 60.4268 4.12624 60.6586 3.95244C60.871 3.77863 61.0641 3.62414 61.2572 3.45033C61.431 3.27652 61.5855 3.12203 61.7014 2.94822C61.8173 2.79372 61.8752 2.63923 61.8752 2.50405C61.8752 2.36886 61.8173 2.29162 61.7014 2.25299C61.5855 2.21437 61.489 2.17574 61.4117 2.17574V2.05987C61.8173 1.86675 62.2228 1.73157 62.5897 1.65432C62.976 1.57708 63.2463 1.53845 63.4202 1.53845C63.5167 1.53845 63.6326 1.55776 63.7292 1.59639C63.8257 1.63501 63.8836 1.73157 63.8836 1.88607Z" fill="#D3AF4A"/>
<path d="M41.1536 18.2819C41.1536 18.475 41.0764 18.6488 40.9412 18.8033C40.7867 18.9578 40.6322 19.0736 40.4584 19.1702C40.246 19.2861 40.0335 19.3826 39.7632 19.4406L39.6666 19.3633C39.6859 19.3247 39.6859 19.2474 39.6859 19.1702C39.6859 18.9385 39.57 18.7067 39.319 18.475C39.0679 18.2625 38.7203 18.0694 38.2568 17.8956C37.7933 17.7218 37.214 17.5866 36.5188 17.4901C35.8235 17.3935 35.0124 17.3356 34.1048 17.3356C34.0275 17.4321 33.9503 17.548 33.8924 17.6639C33.8344 17.7797 33.7572 17.9149 33.6992 18.0694C33.622 18.2239 33.5447 18.3977 33.4675 18.6102C33.3709 18.8033 33.2744 19.035 33.1585 19.3054C33.0426 19.5758 32.8688 19.9813 32.6371 20.5413C32.4053 21.1014 32.135 21.758 31.8067 22.4918C31.4977 23.245 31.1501 24.0368 30.7831 24.9058C30.4162 25.7749 30.03 26.6246 29.663 27.4936C29.4892 27.8799 29.2961 28.2275 29.0644 28.5558C28.852 28.8841 28.6202 29.1158 28.3885 29.2896C28.3112 29.3476 28.2147 29.4055 28.0795 29.4634C27.9443 29.5214 27.8284 29.5793 27.6932 29.6179C27.558 29.6759 27.4422 29.7145 27.3263 29.7338C27.2104 29.7531 27.1139 29.7724 27.0559 29.7724L26.9401 29.6372C26.9594 29.5986 27.0173 29.5021 27.0753 29.3862C27.1525 29.251 27.2298 29.1158 27.3263 28.942C27.4229 28.7682 27.5194 28.5944 27.6353 28.4013C27.7512 28.2082 27.8477 28.015 27.9443 27.8605C28.176 27.455 28.4271 26.9722 28.6781 26.4122C28.9485 25.8714 29.2189 25.2728 29.4892 24.6548C29.7789 24.0368 30.0686 23.3802 30.3583 22.7043C30.6673 22.0284 30.9569 21.3524 31.2466 20.6958C31.4977 20.1358 31.7294 19.6723 31.9032 19.3054C32.0963 18.9385 32.2508 18.6295 32.4053 18.3784C32.5598 18.1274 32.6757 17.9342 32.7916 17.7797C32.9074 17.6252 33.0233 17.4708 33.1392 17.3356H32.6564C32.0384 17.3356 31.3239 17.3549 30.5321 17.4128C29.7403 17.4708 28.8713 17.5866 27.9636 17.7604C27.0559 17.9342 26.0904 18.2046 25.1054 18.5715C24.1012 18.9191 23.1163 19.4019 22.0928 20.0199C21.2817 20.5027 20.6444 21.0435 20.1616 21.6035C19.6981 22.1635 19.4664 22.685 19.4664 23.1484C19.4664 23.4381 19.6209 23.5733 19.9492 23.5733C20.0844 23.5733 20.2195 23.554 20.3547 23.5154C20.4899 23.4768 20.6444 23.4188 20.8182 23.3223V23.554C20.5478 23.8437 20.2195 24.0561 19.8333 24.1913C19.4471 24.3265 19.1188 24.4037 18.8677 24.4037C18.5587 24.4037 18.3463 24.3265 18.2304 24.1913C18.1145 24.0561 18.0566 23.863 18.0566 23.6119C18.0566 23.2643 18.2111 22.8974 18.5008 22.4918C18.8098 22.0863 19.1767 21.6807 19.6016 21.2945C20.0457 20.9083 20.5092 20.522 21.0306 20.1937C21.5327 19.8461 22.0155 19.5564 22.4211 19.344C23.4446 18.8033 24.4682 18.3591 25.5303 18.0308C26.5732 17.6832 27.5967 17.4128 28.5623 17.2197C29.5279 17.0266 30.4355 16.8914 31.2659 16.8142C32.0963 16.7369 32.8109 16.6983 33.3709 16.6983H33.622L34.5683 16.0031H34.9545C34.8579 16.1382 34.7807 16.2348 34.7035 16.3507L34.4331 16.6983C35.2442 16.7176 36.036 16.7562 36.8278 16.8335C37.6195 16.9107 38.3341 17.0073 38.9714 17.1425C39.6087 17.2776 40.1301 17.4514 40.5163 17.6446C40.9605 17.7991 41.1536 18.0308 41.1536 18.2819ZM37.6968 19.0543C37.5616 19.3054 37.4071 19.5951 37.2333 19.9427C37.0595 20.2903 36.8664 20.6379 36.6733 21.0241C36.4801 21.3911 36.3063 21.7773 36.1325 22.1442C35.9587 22.5112 35.8235 22.8588 35.7077 23.1484C35.5339 23.5926 35.3601 24.0368 35.1862 24.5003C35.0124 24.9638 34.7807 25.5238 34.5103 26.1804C34.4138 26.4315 34.2979 26.7211 34.1627 27.0494C34.0275 27.3778 33.9696 27.6481 33.9696 27.8799C33.9696 28.0344 34.0662 28.1116 34.24 28.1116C34.3558 28.1116 34.4717 28.0923 34.6069 28.0344C34.7421 27.9764 34.8579 27.9378 34.9545 27.8799C35.0897 27.8026 35.2056 27.7254 35.3021 27.6481L35.4566 28.015C35.3214 28.1309 35.1283 28.2661 34.9159 28.4399C34.6841 28.6137 34.4524 28.7682 34.2013 28.9227C33.9503 29.0772 33.6799 29.2124 33.4096 29.3283C33.1392 29.4441 32.8881 29.5021 32.6371 29.5021C32.386 29.5021 32.2701 29.3476 32.2701 29.0193C32.2701 28.9227 32.2895 28.7682 32.3281 28.5751C32.3667 28.382 32.4246 28.1695 32.5019 27.9571C32.5791 27.7254 32.6757 27.4936 32.7723 27.2426C32.8688 26.9915 32.9847 26.7405 33.0813 26.4894C33.1392 26.3349 33.2551 26.0645 33.3902 25.7169C33.5447 25.3693 33.6992 24.9638 33.8924 24.5003C34.0855 24.0368 34.2786 23.554 34.5103 23.0519C34.7228 22.5498 34.9545 22.067 35.1862 21.6228C35.418 21.1786 35.6304 20.7731 35.8428 20.4062C36.0553 20.0392 36.2484 19.7882 36.4029 19.6337C36.6539 19.3826 36.8857 19.2281 37.0788 19.1702C37.2719 19.1123 37.4071 19.093 37.523 19.093H37.5809H37.6195H37.6968V19.0543Z" fill="#D3AF4A"/>
<path d="M46.6575 22.8395C46.6575 23.3995 46.561 23.9596 46.3872 24.5389C46.194 25.099 45.9044 25.6783 45.4988 26.2384C45.2864 26.5281 45.016 26.8757 44.6684 27.2619C44.3401 27.6481 43.9539 28.0151 43.529 28.3434C43.1041 28.6717 42.6213 28.9614 42.0999 29.1931C41.5785 29.4248 41.0378 29.5407 40.4391 29.5407C40.246 29.5407 40.0529 29.5407 39.8404 29.5214C39.628 29.5021 39.4735 29.5021 39.3383 29.4635C39.2031 29.7531 39.068 30.1201 38.9135 30.5256C38.759 30.9312 38.5658 31.414 38.3727 31.9547C37.9092 33.152 37.6002 34.0211 37.4457 34.5232C37.4264 34.6584 37.4071 34.7935 37.3878 34.9094C37.3685 35.0446 37.3685 35.1025 37.3685 35.1412C37.2719 35.4115 37.0402 35.6433 36.6926 35.8557C36.3257 36.0874 35.9974 36.2226 35.7077 36.2226C35.5146 36.2226 35.418 36.1261 35.418 35.9136C35.418 35.8171 35.4566 35.624 35.5339 35.3729C35.6111 35.1218 35.7463 34.7742 35.9201 34.3494L38.2762 28.9614C38.141 28.6524 38.0637 28.3627 38.0637 28.073C38.0637 27.9764 38.0637 27.9185 38.0637 27.8606C38.0637 27.8026 38.083 27.764 38.083 27.7061L38.6045 27.9185L40.2267 24.2686C40.555 23.5154 40.7288 23.0326 40.7288 22.8009C40.7288 22.7043 40.6708 22.6464 40.5743 22.6464C40.4777 22.6464 40.3232 22.685 40.0722 22.7816C39.8211 22.8781 39.4928 23.0326 39.0486 23.2837L38.9328 22.9554C39.1452 22.8395 39.4156 22.7043 39.7246 22.5498C40.0335 22.3953 40.3619 22.2408 40.6902 22.0863C41.0185 21.9511 41.3467 21.816 41.6364 21.7194C41.9454 21.6228 42.1772 21.5649 42.351 21.5649C42.5055 21.5649 42.5827 21.6421 42.5827 21.7966C42.5827 21.8739 42.4861 22.1443 42.2737 22.6077C42.0613 23.0905 41.7909 23.6506 41.4433 24.3072L41.5399 24.3265C41.7523 24.1141 41.9647 23.8823 42.1965 23.6313C42.4282 23.3802 42.6793 23.1292 42.9496 22.8781C43.22 22.6271 43.4904 22.3953 43.7994 22.1829C44.089 21.9511 44.398 21.7773 44.7456 21.6228C45.016 21.4877 45.3057 21.4297 45.6533 21.4297C45.9623 21.4297 46.194 21.5263 46.3872 21.7387C46.5803 22.0091 46.6575 22.3567 46.6575 22.8395ZM45.016 23.5347C45.016 23.245 44.9774 23.0133 44.9194 22.8781C44.8422 22.7429 44.7263 22.6657 44.5332 22.6657C44.2628 22.6657 43.9539 22.7816 43.6255 23.0326C43.2779 23.2837 42.9496 23.5926 42.602 23.9596C42.2544 24.3458 41.9068 24.7514 41.5785 25.2148C41.2309 25.6783 40.9412 26.1225 40.6708 26.5667C40.4391 26.9336 40.2653 27.2812 40.1108 27.5902C39.9756 27.8992 39.8597 28.1889 39.7632 28.4592C40.1687 28.7103 40.6708 28.8455 41.2309 28.8455C41.7137 28.8455 42.1772 28.691 42.602 28.3627C42.9689 28.0923 43.2973 27.7833 43.6062 27.3971C43.8959 27.0109 44.147 26.6246 44.3594 26.1804C44.5718 25.7556 44.7263 25.3114 44.8422 24.8479C44.9581 24.4231 45.016 23.9789 45.016 23.5347Z" fill="#D3AF4A"/>
<path d="M55.8692 22.2022C55.6954 22.3567 55.5409 22.5305 55.3864 22.7622C55.232 22.9939 55.0775 23.245 54.923 23.5347C54.8264 23.7471 54.7105 23.9789 54.5753 24.2685C54.4402 24.5582 54.2857 24.8865 54.1312 25.2534C53.9574 25.6204 53.8222 25.9294 53.7256 26.1804C53.6291 26.4315 53.5325 26.6439 53.4746 26.7984C53.2621 27.3198 53.1656 27.6481 53.1656 27.8026C53.1656 27.9764 53.2621 28.0537 53.4553 28.0537C53.7063 28.0537 53.9574 27.9764 54.247 27.8026C54.5367 27.6288 54.8264 27.455 55.1161 27.2619L55.2706 27.6288C54.9809 27.8412 54.6912 28.0537 54.4015 28.2661C54.0926 28.4785 53.8029 28.691 53.4939 28.8648C53.1849 29.0386 52.8952 29.1931 52.6055 29.3089C52.3159 29.4248 52.0648 29.4827 51.8331 29.4827C51.5434 29.4827 51.3889 29.3476 51.3889 29.0772C51.3889 28.7875 51.5434 28.2854 51.8331 27.6095L52.3352 26.4315H52.2C51.6979 26.9722 51.2344 27.4357 50.8288 27.8219C50.4233 28.2082 50.0564 28.5365 49.7087 28.7682C49.3611 29.0193 49.0521 29.1931 48.7625 29.3089C48.4728 29.4248 48.1831 29.4827 47.8741 29.4827C47.1982 29.4827 46.8506 29.0772 46.8506 28.2854C46.8506 27.8992 46.9085 27.5129 47.0437 27.1074C47.1789 26.7211 47.3527 26.3349 47.5651 25.968C47.7776 25.6011 48.0286 25.2534 48.3376 24.9058C48.6273 24.5582 48.9556 24.2492 49.3032 23.9402C49.6508 23.6312 50.0564 23.3416 50.4619 23.0519C50.8868 22.7622 51.331 22.5305 51.7944 22.318C52.2579 22.1056 52.76 21.9318 53.2428 21.8159C53.7449 21.6807 54.247 21.6228 54.7492 21.6228C54.9809 21.6228 55.2126 21.6614 55.4637 21.758C55.7148 21.8352 55.8306 21.9704 55.8306 22.1635V22.2022H55.8692ZM54.5367 22.4918C54.4402 22.4146 54.2857 22.3567 54.0925 22.3373C53.8994 22.318 53.7063 22.2987 53.5518 22.2987C53.1463 22.2987 52.7407 22.3953 52.3159 22.6077C51.9103 22.8201 51.5048 23.0712 51.1378 23.3802C50.7709 23.6892 50.4233 24.0175 50.1143 24.3844C49.8053 24.7513 49.5543 25.0989 49.3611 25.4079C49.1101 25.8714 48.8976 26.277 48.7431 26.6632C48.5887 27.0494 48.5114 27.3777 48.5114 27.6481C48.5114 27.8799 48.55 28.0537 48.6466 28.1502C48.7431 28.2468 48.8783 28.2854 49.0715 28.2854C49.3418 28.2854 49.6508 28.1502 50.0177 27.8992C50.3654 27.6481 50.7323 27.3584 51.0799 27.0108C51.4275 26.6632 51.7558 26.3156 52.0648 25.9487C52.3738 25.5817 52.5862 25.2921 52.7214 25.0603C52.8566 24.8479 53.0111 24.5775 53.1849 24.2299C53.2814 24.0175 53.378 23.805 53.4746 23.6119C53.5711 23.4188 53.7063 23.2064 53.8801 23.0133C54.0926 22.8008 54.3243 22.6077 54.5367 22.4918Z" fill="#D3AF4A"/>
<path d="M66.4907 17.239C66.4907 17.7604 66.1624 18.4364 65.4865 19.2475C65.2741 19.4985 65.0037 19.7882 64.6561 20.0972C64.3278 20.4062 63.9609 20.7152 63.5553 21.0435C63.1498 21.3718 62.7249 21.7001 62.2808 22.0091C61.8366 22.3374 61.3731 22.627 60.9289 22.8781V22.9553C61.2379 22.8781 61.5276 22.8395 61.798 22.8008C62.0683 22.7815 62.3001 22.7622 62.5125 22.7622C62.8601 22.7622 63.1691 22.8395 63.4202 22.994C63.6712 23.1485 63.7871 23.4381 63.7871 23.863C63.7871 24.1527 63.7292 24.4617 63.594 24.79C63.4588 25.1183 63.285 25.4659 63.0725 25.7942C62.8408 26.1418 62.5897 26.4701 62.3001 26.8177C62.0104 27.146 61.7014 27.4743 61.3538 27.7833C60.6972 28.382 60.0599 28.8068 59.4419 29.0579C58.8239 29.3089 58.2639 29.4441 57.7811 29.4441C57.4914 29.4441 57.2597 29.3862 57.0859 29.2896C56.9121 29.1931 56.7962 29.0579 56.7189 28.9227C56.6417 28.7875 56.5838 28.633 56.5644 28.4592C56.5451 28.2854 56.5451 28.1502 56.5451 28.015C56.5451 27.5129 56.6417 26.9722 56.8348 26.3929C57.0279 25.8135 57.2597 25.2148 57.53 24.5968C57.7618 24.0754 58.0515 23.5154 58.4184 22.9167C58.766 22.318 59.1716 21.7001 59.6157 21.1014C60.0599 20.5027 60.5427 19.9041 61.0255 19.344C61.5276 18.784 62.0297 18.2819 62.5318 17.857C63.0339 17.4128 63.5553 17.0652 64.0381 16.8142C64.5402 16.5438 65.0037 16.4279 65.4479 16.4279C65.7762 16.4279 66.0273 16.4859 66.2011 16.6017C66.4135 16.7369 66.4907 16.9493 66.4907 17.239ZM64.8879 18.0694C64.8879 17.7218 64.6947 17.5287 64.3278 17.5287C63.9995 17.5287 63.6712 17.6446 63.3429 17.857C62.9953 18.0694 62.667 18.3591 62.3387 18.7067C62.0104 19.0543 61.6821 19.4406 61.3731 19.8847C61.0641 20.3289 60.7744 20.7538 60.5234 21.198C60.253 21.6421 60.0213 22.067 59.8088 22.4532C59.5964 22.8588 59.4419 23.1871 59.326 23.4574C59.1716 23.7857 59.0171 24.1334 58.8819 24.5003C58.7467 24.8672 58.6115 25.2341 58.5149 25.5818C58.3991 25.9487 58.3218 26.277 58.2446 26.6053C58.1673 26.9336 58.148 27.2233 58.148 27.4743C58.148 27.764 58.206 28.0151 58.3218 28.2275C58.4377 28.4399 58.6501 28.5365 58.9977 28.5365C59.2874 28.5365 59.5578 28.4592 59.8668 28.3047C60.1565 28.1502 60.4848 27.9185 60.8517 27.5709C61.2765 27.1653 61.6435 26.6632 61.9332 26.1032C62.2228 25.5238 62.358 24.9831 62.358 24.4617C62.358 24.3458 62.358 24.2106 62.3387 24.0754C62.3194 23.9402 62.2808 23.8051 62.2228 23.6699C62.1456 23.5347 62.049 23.4381 61.8945 23.3609C61.74 23.2836 61.5276 23.245 61.2379 23.245C60.9096 23.245 60.6393 23.2836 60.3882 23.3609C60.1371 23.4381 59.9826 23.4961 59.9247 23.5154V23.0519C60.253 22.8588 60.6972 22.5691 61.2572 22.2022C61.8173 21.8352 62.3773 21.4104 62.9181 20.9469C63.4588 20.4834 63.9223 20.0006 64.3278 19.4985C64.6947 19.0157 64.8879 18.5329 64.8879 18.0694Z" fill="#D3AF4A"/>
<path d="M72.1299 23.1677C72.1299 23.863 71.9754 24.5389 71.6471 25.1955C71.3188 25.8714 70.9132 26.4894 70.4304 27.0687C69.6966 27.9185 68.982 28.5364 68.2868 28.9227C67.5723 29.3089 66.8384 29.502 66.0853 29.502C64.8879 29.502 64.2892 28.9034 64.2892 27.7253C64.2892 27.2812 64.3665 26.837 64.5403 26.3542C64.7141 25.8714 64.9265 25.4079 65.2162 24.9637C65.5059 24.5196 65.8535 24.0754 66.2398 23.6698C66.626 23.2643 67.0702 22.8974 67.5143 22.5884C67.9778 22.2794 68.4606 22.0283 68.9627 21.8545C69.4648 21.6807 69.9862 21.5842 70.5077 21.5842C71.0291 21.5842 71.4346 21.7194 71.7243 22.009C71.9754 22.2987 72.1299 22.6849 72.1299 23.1677ZM70.5463 23.805C70.5463 23.2836 70.469 22.936 70.2952 22.7236C70.1214 22.5304 69.8511 22.4146 69.4262 22.4146C68.4992 22.4146 67.6881 22.9553 66.935 24.0561C66.1818 25.1376 65.8149 26.277 65.8149 27.4743C65.8149 27.8605 65.9115 28.1502 66.0853 28.4013C66.2591 28.633 66.5487 28.7489 66.9736 28.7489C67.3212 28.7489 67.6495 28.6523 67.9585 28.4785C68.2675 28.3047 68.5572 28.073 68.8275 27.7833C69.0979 27.4936 69.3296 27.1653 69.5421 26.8177C69.7545 26.4508 69.9283 26.1031 70.0828 25.7362C70.2373 25.3693 70.3532 25.0217 70.4304 24.6741C70.5077 24.3458 70.5463 24.0561 70.5463 23.805Z" fill="#D3AF4A"/>
<path d="M82.6742 17.239C82.6742 17.7604 82.3459 18.4364 81.6699 19.2475C81.4575 19.4985 81.1871 19.7882 80.8395 20.0972C80.5112 20.4062 80.1443 20.7152 79.7388 21.0435C79.3332 21.3718 78.9083 21.7001 78.4642 22.0091C78.02 22.3374 77.5565 22.627 77.1123 22.8781V22.9553C77.4213 22.8781 77.711 22.8395 77.9814 22.8008C78.2517 22.7815 78.4835 22.7622 78.6959 22.7622C79.0435 22.7622 79.3525 22.8395 79.6036 22.994C79.8546 23.1485 79.9705 23.4381 79.9705 23.863C79.9705 24.1527 79.9126 24.4617 79.7774 24.79C79.6422 25.1183 79.4684 25.4659 79.256 25.7942C79.0242 26.1418 78.7732 26.4701 78.4835 26.8177C78.1938 27.146 77.8848 27.4743 77.5372 27.7833C76.8806 28.382 76.2433 28.8068 75.6253 29.0579C75.0073 29.3089 74.4473 29.4441 73.9645 29.4441C73.6748 29.4441 73.4431 29.3862 73.2693 29.2896C73.0955 29.1931 72.9796 29.0579 72.9024 28.9227C72.8251 28.7875 72.7672 28.633 72.7479 28.4592C72.7286 28.2854 72.7285 28.1502 72.7285 28.015C72.7285 27.5129 72.8251 26.9722 73.0182 26.3929C73.2113 25.8135 73.4431 25.2148 73.7135 24.5968C73.9452 24.0754 74.2349 23.5154 74.6018 22.9167C74.9494 22.318 75.355 21.7001 75.7991 21.1014C76.2433 20.5027 76.7261 19.9041 77.2089 19.344C77.711 18.784 78.2131 18.2819 78.7152 17.857C79.2173 17.4128 79.7388 17.0652 80.2216 16.8142C80.7237 16.5438 81.1872 16.4279 81.6313 16.4279C81.9596 16.4279 82.2107 16.4859 82.3845 16.6017C82.5776 16.7369 82.6742 16.9493 82.6742 17.239ZM81.052 18.0694C81.052 17.7218 80.8588 17.5287 80.4919 17.5287C80.1636 17.5287 79.8353 17.6446 79.507 17.857C79.1594 18.0694 78.8311 18.3591 78.5028 18.7067C78.1745 19.0543 77.8462 19.4406 77.5372 19.8847C77.2282 20.3289 76.9385 20.7538 76.6875 21.198C76.4171 21.6421 76.1854 22.067 75.9729 22.4532C75.7605 22.8588 75.606 23.1871 75.4901 23.4574C75.3356 23.7857 75.1812 24.1334 75.046 24.5003C74.9108 24.8672 74.7756 25.2341 74.6791 25.5818C74.5632 25.9487 74.4859 26.277 74.4087 26.6053C74.3314 26.9336 74.3121 27.2233 74.3121 27.4743C74.3121 27.764 74.3701 28.0151 74.4859 28.2275C74.6018 28.4399 74.8142 28.5365 75.1618 28.5365C75.4515 28.5365 75.7219 28.4592 76.0309 28.3047C76.3206 28.1502 76.6489 27.9185 77.0158 27.5709C77.4406 27.1653 77.8076 26.6632 78.0972 26.1032C78.3869 25.5238 78.5221 24.9831 78.5221 24.4617C78.5221 24.3458 78.5221 24.2106 78.5028 24.0754C78.4835 23.9402 78.4449 23.8051 78.3869 23.6699C78.3097 23.5347 78.2131 23.4381 78.0586 23.3609C77.9041 23.2836 77.6917 23.245 77.402 23.245C77.0737 23.245 76.8034 23.2836 76.5523 23.3609C76.3012 23.4381 76.1468 23.4961 76.0888 23.5154V23.0519C76.4171 22.8588 76.8613 22.5691 77.4213 22.2022C77.9814 21.8352 78.5414 21.4104 79.0822 20.9469C79.6229 20.4834 80.0864 20.0006 80.4919 19.4985C80.8588 19.0157 81.052 18.5329 81.052 18.0694Z" fill="#D3AF4A"/>
<path d="M87.3281 25.1376C87.3281 25.4272 87.2316 25.7748 87.0577 26.1997C86.8839 26.6246 86.5943 27.0301 86.208 27.4357C86.0728 27.5902 85.899 27.7447 85.6866 27.9185C85.4742 28.0923 85.2424 28.2661 85.0107 28.4206C84.7596 28.5944 84.5086 28.7296 84.2382 28.8841C83.9679 29.0385 83.7168 29.1158 83.4464 29.193C83.0409 29.3282 82.6933 29.4055 82.4229 29.4248C82.1525 29.4441 81.9015 29.4634 81.6311 29.4634C81.3028 29.4634 81.0904 29.3862 80.9552 29.251C80.82 29.1158 80.7621 28.942 80.7621 28.7875C80.7621 28.5944 80.8007 28.3626 80.8973 28.0923C80.9938 27.8219 81.129 27.4743 81.3221 27.0494C81.4187 26.837 81.5345 26.5666 81.6697 26.2383C81.8242 25.91 81.9594 25.5624 82.1139 25.1955C82.2684 24.8286 82.4229 24.4809 82.5581 24.1526C82.6933 23.8243 82.8091 23.554 82.8864 23.3222C82.925 23.2257 82.9636 23.1291 82.9829 23.0326C83.0216 22.9553 83.0216 22.8781 83.0216 22.8008C83.0216 22.7043 82.9636 22.6463 82.8671 22.6463C82.7705 22.6463 82.6353 22.6849 82.4615 22.7429C82.2877 22.8201 82.1139 22.8781 81.9594 22.9746C81.747 23.0712 81.5539 23.1677 81.3414 23.2836L81.2256 22.9553C81.3801 22.8587 81.5732 22.7622 81.8242 22.627C82.0753 22.4918 82.3263 22.376 82.5967 22.2601C82.8671 22.1442 83.1181 22.0283 83.3499 21.9318C83.5816 21.8352 83.7747 21.758 83.9099 21.7194C84.1803 21.6228 84.412 21.5842 84.6051 21.5842C84.6631 21.5842 84.721 21.6035 84.7596 21.6228C84.7983 21.6421 84.8176 21.7193 84.8176 21.8352C84.8176 21.8545 84.7983 21.9125 84.7596 22.0283C84.721 22.1442 84.6631 22.2601 84.6051 22.3953C84.5472 22.5304 84.47 22.6849 84.412 22.8587C84.3348 23.0132 84.2768 23.1677 84.2382 23.3029C84.1417 23.496 84.0644 23.7085 83.9678 23.9209C83.8713 24.1333 83.7554 24.3844 83.6395 24.6548C84.0258 24.4616 84.4313 24.3071 84.8369 24.172C85.2424 24.0368 85.6287 23.9788 85.9956 23.9788C86.4784 23.9788 86.8067 24.0754 86.9998 24.2492C87.2316 24.423 87.3281 24.732 87.3281 25.1376ZM85.8218 25.5624C85.8218 25.3886 85.8025 25.2341 85.7445 25.1182C85.6866 25.0024 85.6287 24.9251 85.5514 24.8865C85.4742 24.8286 85.3776 24.8092 85.2811 24.7899C85.1845 24.7706 85.0686 24.7706 84.9527 24.7706C84.7403 24.7706 84.4893 24.8093 84.2189 24.9058C83.9485 25.0024 83.7168 25.0989 83.4851 25.2148C83.3692 25.4852 83.2533 25.7555 83.1181 26.0452C82.9829 26.3349 82.8671 26.6053 82.7512 26.8949C82.6353 27.1846 82.5388 27.4357 82.4808 27.6674C82.4036 27.8992 82.3843 28.1116 82.3843 28.2661C82.3843 28.4206 82.4229 28.5364 82.5002 28.6137C82.5774 28.6909 82.7319 28.7296 82.9636 28.7296C83.2726 28.7296 83.6202 28.6523 83.9485 28.4785C84.2768 28.3047 84.6051 28.0923 84.8755 27.8026C85.1652 27.5129 85.3776 27.1846 85.5707 26.7984C85.7252 26.4314 85.8218 26.0066 85.8218 25.5624ZM91.3836 21.758C91.3836 21.8352 91.2098 22.2215 90.8622 22.9167C90.5146 23.6312 90.0511 24.6934 89.4524 26.1418C89.3752 26.3156 89.2979 26.4894 89.2207 26.6632C89.1434 26.837 89.0662 27.0108 89.0082 27.1653C88.9503 27.3198 88.8924 27.455 88.8537 27.5902C88.8151 27.7253 88.7958 27.8219 88.7958 27.8992C88.7958 28.015 88.8151 28.073 88.8537 28.1116C88.8924 28.1309 88.9503 28.1502 89.0469 28.1502C89.1434 28.1502 89.2979 28.1116 89.4717 28.015C89.6455 27.9185 89.8193 27.8219 90.0125 27.706C90.2249 27.5708 90.418 27.4357 90.6497 27.2619L90.8042 27.6288C90.6691 27.7447 90.4566 27.8991 90.1863 28.1116C89.9159 28.324 89.6262 28.5364 89.2979 28.7296C88.9889 28.942 88.6606 29.1158 88.3323 29.2703C88.004 29.4248 87.7144 29.502 87.4826 29.502C87.3088 29.502 87.2122 29.4634 87.1543 29.3862C87.0964 29.3089 87.0771 29.2317 87.0771 29.1158C87.0771 28.9999 87.1157 28.8454 87.1929 28.5944C87.2702 28.3433 87.3667 28.073 87.5019 27.7447C87.6371 27.4164 87.7723 27.0881 87.9268 26.7211C88.0813 26.3542 88.2358 26.0066 88.3903 25.6397C88.5448 25.292 88.6799 24.9637 88.8151 24.6548C88.9503 24.3458 89.0469 24.0947 89.1434 23.9016C89.3172 23.496 89.5104 23.0905 89.7035 22.7236C89.8966 22.3373 90.0897 22.0863 90.2828 21.9704C90.4953 21.8352 90.6498 21.758 90.8042 21.7C90.9394 21.6421 91.0939 21.6228 91.2291 21.6228C91.2677 21.6228 91.3064 21.6228 91.345 21.6421C91.3643 21.6228 91.3836 21.6807 91.3836 21.758Z" fill="#D3AF4A"/>
<path d="M98.9154 22.1829C98.9154 22.4146 98.8382 22.6463 98.6644 22.8974C98.4905 23.1485 98.2974 23.3802 98.0464 23.6119C97.7953 23.8437 97.5443 24.0561 97.2739 24.2492C97.0035 24.4423 96.7718 24.6162 96.5594 24.7513C96.1152 25.041 95.6517 25.3114 95.1496 25.5431C94.6668 25.7749 94.1261 25.968 93.5467 26.1032C93.4888 26.2577 93.4502 26.4315 93.4309 26.586C93.4115 26.7598 93.3922 26.8563 93.3922 26.9143C93.3922 27.5129 93.5274 27.9378 93.7978 28.2082C94.0681 28.4785 94.4737 28.5944 94.9951 28.5944C95.4586 28.5944 95.9221 28.4785 96.3856 28.2661C96.849 28.0344 97.2739 27.8219 97.6408 27.5902L97.7953 27.8412C97.5829 28.015 97.3125 28.2082 97.0228 28.4013C96.7139 28.5944 96.4049 28.7682 96.0573 28.942C95.7096 29.1158 95.362 29.251 95.0144 29.3476C94.6668 29.4441 94.2999 29.5021 93.9523 29.5021C93.2957 29.5021 92.7742 29.3476 92.388 29.0386C92.0018 28.7296 91.8087 28.2468 91.8087 27.5902C91.8087 26.1997 92.4266 24.9251 93.6819 23.7278C93.9523 23.4768 94.2613 23.2257 94.6089 22.9553C94.9565 22.685 95.3041 22.4725 95.6903 22.2601C96.0573 22.0477 96.4628 21.8932 96.849 21.758C97.2546 21.6228 97.6408 21.5649 98.0464 21.5649C98.6257 21.6035 98.9154 21.7966 98.9154 22.1829ZM97.2932 22.8588C97.2932 22.5884 97.1194 22.4725 96.7911 22.4725C96.5401 22.4725 96.2697 22.5691 95.9607 22.7429C95.671 22.9167 95.3813 23.1678 95.111 23.4381C94.8406 23.7278 94.5896 24.0368 94.3578 24.4037C94.1261 24.7513 93.9523 25.1183 93.8364 25.4659C94.1647 25.4079 94.5316 25.2921 94.9372 25.1376C95.3427 24.9638 95.7096 24.7707 96.0573 24.5196C96.4049 24.2879 96.6945 24.0175 96.9263 23.7278C97.1773 23.4381 97.2932 23.1485 97.2932 22.8588Z" fill="#D3AF4A"/>
<path d="M117.416 22.0283C117.416 22.1635 117.378 22.3373 117.32 22.5691C117.262 22.7815 117.185 23.0132 117.088 23.2643C116.991 23.5154 116.895 23.7664 116.798 24.0175C116.702 24.2685 116.605 24.4809 116.509 24.6741L115.871 26.1031C115.813 26.219 115.755 26.3542 115.678 26.528C115.601 26.7018 115.524 26.8756 115.466 27.0494C115.388 27.2232 115.331 27.397 115.292 27.5515C115.234 27.706 115.215 27.8219 115.215 27.8991C115.215 28.0536 115.292 28.1309 115.466 28.1309C115.562 28.1309 115.678 28.0923 115.813 28.0343C115.968 27.9764 116.161 27.8605 116.412 27.6867L117.049 27.2425L117.204 27.6095C116.393 28.2661 115.736 28.7489 115.195 29.0385C114.655 29.3475 114.23 29.502 113.901 29.502C113.631 29.502 113.496 29.3669 113.496 29.1158C113.496 29.0192 113.515 28.8841 113.573 28.7102C113.631 28.5364 113.689 28.3433 113.747 28.1502C113.824 27.9571 113.901 27.7447 113.979 27.5322C114.056 27.3198 114.133 27.146 114.21 26.9722L114.886 25.35C115.099 24.8286 115.273 24.3844 115.389 24.0561C115.504 23.7278 115.562 23.496 115.562 23.4188C115.562 23.2643 115.485 23.187 115.35 23.187C115.118 23.187 114.867 23.2643 114.577 23.4381C114.288 23.6119 114.017 23.8243 113.728 24.0754C113.438 24.3264 113.148 24.6161 112.859 24.9444C112.569 25.2727 112.299 25.5817 112.067 25.8907C111.816 26.1997 111.623 26.4894 111.43 26.7597C111.256 27.0301 111.121 27.2425 111.043 27.397L110.676 28.1309C110.618 28.2275 110.599 28.3047 110.58 28.3626C110.561 28.4206 110.522 28.4785 110.483 28.5171L110.136 28.8647C109.923 29.0772 109.73 29.2124 109.576 29.3089C109.421 29.3862 109.267 29.4441 109.151 29.4441C108.996 29.4441 108.919 29.3669 108.919 29.2124C108.919 29.0772 108.996 28.8647 109.131 28.5558C109.267 28.2468 109.44 27.8991 109.634 27.4936L110.116 26.4894C110.541 25.5431 110.87 24.7899 111.063 24.2299C111.256 23.6698 111.352 23.3222 111.352 23.2064C111.352 23.1098 111.314 23.0519 111.217 23.0519C111.005 23.0519 110.754 23.1291 110.464 23.3029C110.174 23.4767 109.865 23.6892 109.556 23.9788C109.228 24.2492 108.919 24.5582 108.61 24.9058C108.301 25.2341 108.011 25.5817 107.741 25.91C107.471 26.2383 107.239 26.528 107.046 26.8177C106.853 27.088 106.717 27.3005 106.64 27.4743L106.312 28.1695C106.254 28.2661 106.235 28.3433 106.215 28.4013C106.196 28.4592 106.157 28.5171 106.119 28.5558L105.771 28.9034C105.559 29.1158 105.366 29.251 105.211 29.3475C105.057 29.4248 104.902 29.4827 104.786 29.4827C104.632 29.4827 104.555 29.4055 104.555 29.251C104.555 29.1737 104.612 29.0192 104.709 28.7875C104.806 28.5558 104.921 28.3047 105.057 28.0536L106.042 25.9486C106.351 25.2534 106.621 24.6354 106.814 24.0754C107.007 23.5154 107.104 23.1098 107.104 22.8781C107.104 22.7429 107.065 22.6849 106.969 22.6849C106.872 22.6849 106.717 22.7236 106.505 22.8008C106.273 22.8781 105.926 23.0519 105.443 23.3222L105.327 22.9939C105.501 22.8974 105.752 22.7622 106.042 22.6077C106.351 22.4532 106.66 22.2987 106.988 22.1442C107.316 21.9897 107.644 21.8738 107.953 21.758C108.282 21.6614 108.533 21.6035 108.765 21.6035C108.919 21.6035 108.996 21.6807 108.996 21.8352C108.996 21.8932 108.958 22.0476 108.88 22.2987C108.803 22.5498 108.668 22.8781 108.494 23.3029L107.625 25.2534L107.76 25.292C108.224 24.7899 108.687 24.3071 109.17 23.863C109.653 23.4188 110.116 23.0326 110.561 22.6849C111.005 22.3566 111.43 22.0863 111.816 21.8932C112.202 21.7 112.55 21.6035 112.839 21.6035C112.994 21.6035 113.09 21.6421 113.148 21.7193C113.206 21.7966 113.226 21.8932 113.226 22.0283C113.226 22.3566 113.032 22.9746 112.627 23.9402L112.125 25.1569C112.704 24.6161 113.245 24.0754 113.786 23.5926C114.326 23.0905 114.906 22.627 115.524 22.2021C116.064 21.8159 116.586 21.6228 117.088 21.6228C117.3 21.6035 117.416 21.7387 117.416 22.0283ZM118.575 17.0845C118.343 17.5673 118.015 18.0115 117.59 18.4363C117.165 18.8612 116.644 19.1702 116.026 19.4019C115.331 19.6723 114.655 19.8268 113.998 19.8654C113.361 19.9233 112.685 19.9427 111.99 19.9427C111.198 19.9427 110.541 19.9427 110.039 19.962C109.537 19.9813 109.093 20.0199 108.707 20.0778C108.34 20.1358 107.992 20.2323 107.702 20.3675C107.413 20.5027 107.084 20.6765 106.737 20.9082L106.66 20.6765C106.949 20.4448 107.2 20.2323 107.451 20.0778C107.702 19.9233 107.934 19.7882 108.147 19.6916C108.378 19.595 108.591 19.4985 108.822 19.4405C109.054 19.3826 109.305 19.3054 109.576 19.2281C109.962 19.1316 110.367 19.0543 110.773 19.0157C111.179 18.9771 111.584 18.9577 111.99 18.9384C112.395 18.9191 112.82 18.9191 113.245 18.8998C113.67 18.8805 114.095 18.8612 114.539 18.8032C115.35 18.7067 116.084 18.5329 116.702 18.2625C117.339 17.9921 117.88 17.5673 118.324 16.9493L118.575 17.0845Z" fill="#D3AF4A"/>
<path d="M125.353 22.1829C125.353 22.4146 125.276 22.6463 125.102 22.8974C124.929 23.1485 124.736 23.3802 124.484 23.6119C124.233 23.8437 123.982 24.0561 123.712 24.2492C123.442 24.4423 123.21 24.6162 122.997 24.7513C122.553 25.041 122.09 25.3114 121.588 25.5431C121.105 25.7749 120.564 25.968 119.985 26.1032C119.927 26.2577 119.888 26.4315 119.869 26.586C119.85 26.7598 119.83 26.8563 119.83 26.9143C119.83 27.5129 119.965 27.9378 120.236 28.2082C120.506 28.4785 120.912 28.5944 121.433 28.5944C121.897 28.5944 122.36 28.4785 122.824 28.2661C123.287 28.0344 123.712 27.8219 124.079 27.5902L124.233 27.8412C124.021 28.015 123.751 28.2082 123.461 28.4013C123.152 28.5944 122.843 28.7682 122.495 28.942C122.148 29.1158 121.8 29.251 121.452 29.3476C121.105 29.4441 120.738 29.5021 120.39 29.5021C119.734 29.5021 119.212 29.3476 118.826 29.0386C118.44 28.7296 118.247 28.2468 118.247 27.5902C118.247 26.1997 118.865 24.9251 120.12 23.7278C120.39 23.4768 120.699 23.2257 121.047 22.9553C121.395 22.685 121.742 22.4725 122.128 22.2601C122.495 22.0477 122.901 21.8932 123.287 21.758C123.693 21.6228 124.079 21.5649 124.484 21.5649C125.064 21.6035 125.353 21.7966 125.353 22.1829ZM123.731 22.8588C123.731 22.5884 123.557 22.4725 123.229 22.4725C122.978 22.4725 122.708 22.5691 122.399 22.7429C122.109 22.9167 121.819 23.1678 121.549 23.4381C121.279 23.7278 121.028 24.0368 120.796 24.4037C120.564 24.7513 120.39 25.1183 120.274 25.4659C120.603 25.4079 120.97 25.2921 121.375 25.1376C121.781 24.9638 122.148 24.7707 122.495 24.5196C122.843 24.2879 123.133 24.0175 123.364 23.7278C123.615 23.4381 123.731 23.1485 123.731 22.8588Z" fill="#D3AF4A"/>
<path d="M133.735 21.6615C133.735 21.8353 133.6 22.0863 133.348 22.4146C133.097 22.7429 132.769 23.1098 132.383 23.4961C132.016 23.8823 131.61 24.2879 131.186 24.7127C130.761 25.1183 130.374 25.5045 130.046 25.8521L130.201 26.6246C130.259 26.8563 130.297 27.0688 130.336 27.2426C130.374 27.4164 130.413 27.5709 130.452 27.7061C130.529 27.9378 130.606 28.0923 130.664 28.2082C130.78 28.3627 130.935 28.4399 131.128 28.4399C131.417 28.4399 131.746 28.3047 132.151 28.0151C132.46 27.8026 132.788 27.5323 133.155 27.1847L133.291 27.5516C132.055 28.8648 130.973 29.5214 130.085 29.5214C129.737 29.5214 129.486 29.1931 129.293 28.5172C129.177 28.0923 129.042 27.4743 128.887 26.6825C128.733 26.837 128.578 27.0108 128.405 27.1847C128.231 27.3585 128.038 27.5323 127.845 27.7254C127.13 28.382 126.589 28.8455 126.203 29.1158C125.817 29.4055 125.489 29.5407 125.18 29.5407C125.044 29.5407 124.948 29.4828 124.871 29.3862C124.793 29.2896 124.755 29.1158 124.755 28.8648C124.755 28.7103 124.774 28.5365 124.832 28.3047C125.18 28.3047 125.74 28.1309 126.473 27.764C127.323 27.3391 128.096 26.8177 128.772 26.1611L128.405 23.9209C128.327 23.4381 128.231 23.1292 128.115 22.994C127.999 22.8588 127.806 22.8009 127.536 22.8009C127.246 22.8009 126.937 22.8588 126.609 22.9747C126.28 23.0905 125.971 23.2257 125.682 23.3416L125.604 23.0133C125.759 22.9167 125.991 22.8009 126.3 22.6464C126.609 22.4919 126.937 22.3374 127.285 22.1829C127.632 22.0284 127.961 21.9125 128.269 21.7966C128.578 21.6808 128.83 21.6421 128.984 21.6421C129.196 21.6421 129.332 21.758 129.39 21.9704C129.467 22.1829 129.525 22.5691 129.602 23.1098L129.93 25.35C130.471 24.8286 130.992 24.2879 131.475 23.7085C131.958 23.1292 132.364 22.4532 132.731 21.7194C132.827 21.6808 132.924 21.6421 133.059 21.5842C133.194 21.5263 133.368 21.507 133.561 21.507C133.619 21.507 133.677 21.5263 133.696 21.5456C133.735 21.507 133.735 21.5649 133.735 21.6615Z" fill="#D3AF4A"/>
<path d="M142.947 21.758C142.889 21.8545 142.831 21.9704 142.773 22.1056C142.695 22.2408 142.638 22.376 142.56 22.5111C142.483 22.6463 142.425 22.7815 142.367 22.8974C142.309 23.0132 142.271 23.0905 142.251 23.1484C142.116 23.4381 141.942 23.8437 141.73 24.3265C141.517 24.8093 141.266 25.4079 140.957 26.1031C140.784 26.5087 140.629 26.8756 140.494 27.1846C140.359 27.5129 140.301 27.7447 140.301 27.8992C140.301 28.015 140.32 28.073 140.359 28.1116C140.397 28.1309 140.455 28.1502 140.552 28.1502C140.648 28.1502 140.803 28.1116 140.977 28.015C141.15 27.9185 141.324 27.8219 141.517 27.706C141.73 27.5708 141.923 27.4357 142.155 27.2619L142.309 27.6288C142.174 27.7447 141.962 27.8991 141.691 28.1116C141.421 28.324 141.131 28.5364 140.803 28.7296C140.494 28.942 140.166 29.1158 139.837 29.2703C139.509 29.4248 139.219 29.502 138.988 29.502C138.814 29.502 138.717 29.4634 138.659 29.3862C138.601 29.3089 138.582 29.2317 138.582 29.1158C138.582 28.9999 138.601 28.8841 138.64 28.7102C138.679 28.5364 138.737 28.3626 138.814 28.1695C138.891 27.9764 138.968 27.7833 139.045 27.5708C139.123 27.3584 139.2 27.1653 139.277 26.9915L139.972 25.35C139.683 25.4465 139.432 25.5045 139.239 25.5431C139.045 25.5817 138.833 25.6203 138.563 25.6397C138.196 25.6976 137.867 25.7362 137.578 25.7362C137.288 25.7555 137.037 25.7555 136.767 25.7942L135.743 28.2275C135.685 28.4013 135.608 28.5364 135.531 28.6137C135.473 28.6716 135.338 28.7875 135.125 28.942C134.913 29.0965 134.72 29.2317 134.527 29.3282C134.353 29.4248 134.217 29.4634 134.082 29.4634C133.966 29.4634 133.909 29.4441 133.889 29.4055C133.87 29.3669 133.87 29.3089 133.87 29.251C133.87 29.193 133.909 29.0579 134.005 28.8454C134.102 28.633 134.237 28.3433 134.411 27.9957C134.584 27.6095 134.739 27.2812 134.893 26.9915C135.029 26.7211 135.125 26.4894 135.222 26.2576C135.318 26.0259 135.376 25.91 135.396 25.8714C135.26 25.8907 135.106 25.91 134.971 25.9293C134.816 25.9487 134.681 25.968 134.527 25.9873L134.604 25.7169C134.971 25.5624 135.318 25.4465 135.627 25.3693C135.705 25.1955 135.801 24.9637 135.898 24.7127C135.994 24.4616 136.091 24.2106 136.187 23.9595C136.284 23.7085 136.342 23.496 136.4 23.3029C136.458 23.1098 136.477 22.9746 136.477 22.8781C136.477 22.7429 136.419 22.6849 136.303 22.6849C136.207 22.6849 136.071 22.7236 135.898 22.7815C135.724 22.8394 135.569 22.9167 135.396 22.9939C135.202 23.0905 135.009 23.1871 134.778 23.3029L134.662 22.9746C134.874 22.8588 135.125 22.7236 135.453 22.5691C135.782 22.4146 136.091 22.2601 136.438 22.1056C136.767 21.9704 137.095 21.8352 137.385 21.7387C137.694 21.6421 137.925 21.5842 138.099 21.5842C138.157 21.5842 138.215 21.6035 138.254 21.6228C138.292 21.6421 138.312 21.7194 138.312 21.8159C138.312 21.8545 138.292 21.9318 138.273 22.0477C138.234 22.1442 138.196 22.2794 138.157 22.4146C138.099 22.5498 138.041 22.7043 137.983 22.8587C137.925 23.0132 137.867 23.1677 137.81 23.3029L137.056 25.0603C137.365 25.0217 137.674 24.9831 137.964 24.9637C138.273 24.9444 138.563 24.9251 138.852 24.8865C139.161 24.8672 139.412 24.8479 139.625 24.8093C139.837 24.7899 140.011 24.7706 140.185 24.732L140.726 23.4188C140.861 23.0712 140.996 22.7815 141.131 22.5498C141.266 22.318 141.421 22.1442 141.614 22.009C141.826 21.8738 142.02 21.7773 142.232 21.7C142.444 21.6228 142.599 21.5842 142.753 21.5842C142.792 21.5842 142.831 21.5842 142.869 21.6035C142.908 21.6228 142.947 21.6807 142.947 21.758Z" fill="#D3AF4A"/>
<path d="M151.289 23.1677C151.289 23.863 151.135 24.5389 150.806 25.1955C150.478 25.8714 150.073 26.4894 149.59 27.0687C148.856 27.9185 148.141 28.5364 147.446 28.9227C146.732 29.3089 145.998 29.502 145.245 29.502C144.047 29.502 143.449 28.9034 143.449 27.7253C143.449 27.2812 143.526 26.837 143.7 26.3542C143.873 25.8714 144.086 25.4079 144.375 24.9637C144.665 24.5196 145.013 24.0754 145.399 23.6698C145.785 23.2643 146.229 22.8974 146.674 22.5884C147.137 22.2794 147.62 22.0283 148.122 21.8545C148.624 21.6807 149.146 21.5842 149.667 21.5842C150.188 21.5842 150.594 21.7194 150.884 22.009C151.135 22.2987 151.289 22.6849 151.289 23.1677ZM149.725 23.805C149.725 23.2836 149.648 22.936 149.474 22.7236C149.3 22.5304 149.03 22.4146 148.605 22.4146C147.678 22.4146 146.867 22.9553 146.114 24.0561C145.36 25.1376 144.993 26.277 144.993 27.4743C144.993 27.8605 145.09 28.1502 145.264 28.4013C145.438 28.633 145.727 28.7489 146.152 28.7489C146.5 28.7489 146.828 28.6523 147.137 28.4785C147.446 28.3047 147.736 28.073 148.006 27.7833C148.276 27.4936 148.508 27.1653 148.721 26.8177C148.933 26.4508 149.107 26.1031 149.261 25.7362C149.416 25.3693 149.532 25.0217 149.609 24.6741C149.667 24.3458 149.725 24.0561 149.725 23.805Z" fill="#D3AF4A"/>
<path d="M159.632 21.8352C159.632 21.9511 159.516 22.2022 159.304 22.5691C159.091 22.936 158.86 23.3609 158.628 23.8437C158.512 24.0754 158.357 24.4037 158.164 24.7899C157.971 25.1762 157.778 25.5817 157.585 26.0066C157.392 26.4121 157.237 26.7984 157.102 27.146C156.967 27.4936 156.89 27.7254 156.89 27.8605C156.89 28.015 156.986 28.0923 157.16 28.0923C157.295 28.0923 157.411 28.073 157.546 28.015C157.682 27.9571 157.797 27.9185 157.913 27.8605C158.048 27.7833 158.164 27.706 158.299 27.6288L158.454 27.9957C158.319 28.1116 158.126 28.2468 157.894 28.4206C157.662 28.5944 157.411 28.7682 157.121 28.9227C156.851 29.0965 156.561 29.2317 156.272 29.3475C155.982 29.4634 155.712 29.5214 155.48 29.5214C155.19 29.5214 155.036 29.3862 155.036 29.0965C155.036 28.9613 155.074 28.7682 155.152 28.5171C155.229 28.2661 155.345 27.9764 155.461 27.6674C155.596 27.3584 155.731 27.0301 155.886 26.6825C156.04 26.3349 156.195 26.0066 156.349 25.6976C156.503 25.3886 156.639 25.0989 156.774 24.8479C156.909 24.5968 157.006 24.4037 157.083 24.2492C157.295 23.805 157.45 23.4767 157.566 23.2643C157.662 23.0326 157.72 22.8781 157.72 22.8008C157.72 22.7236 157.662 22.7043 157.566 22.7043C157.237 22.7043 156.812 22.8974 156.252 23.3029C155.692 23.7085 155.074 24.2685 154.398 24.9831C153.916 25.5045 153.491 26.0452 153.124 26.6053C152.757 27.1846 152.583 27.7833 152.583 28.4206C152.583 28.5558 152.583 28.633 152.602 28.6716C152.429 28.9034 152.216 29.1158 151.965 29.2896C151.714 29.4634 151.502 29.5407 151.309 29.5407C151.154 29.5407 151.038 29.502 150.942 29.4248C150.845 29.3475 150.806 29.2124 150.806 28.9806C150.806 28.5751 151.115 27.9571 151.753 27.0881C152.197 26.4894 152.738 25.8521 153.375 25.1955C154.012 24.5389 154.688 23.9209 155.422 23.3222C155.596 23.1871 155.789 23.0519 156.001 22.8974C156.233 22.7622 156.446 22.627 156.677 22.4918C156.909 22.3566 157.121 22.2601 157.334 22.1442C157.546 22.0477 157.72 21.9704 157.875 21.9125C158.087 21.8159 158.357 21.7387 158.666 21.6807C158.975 21.6228 159.207 21.6035 159.362 21.6035C159.42 21.6035 159.478 21.6035 159.535 21.6228C159.593 21.6421 159.632 21.7194 159.632 21.8352Z" fill="#D3AF4A"/>
<path d="M167.589 23.1677C167.589 23.863 167.434 24.5389 167.106 25.1955C166.777 25.8714 166.372 26.4894 165.889 27.0687C165.155 27.9185 164.441 28.5364 163.745 28.9227C163.031 29.3089 162.297 29.502 161.544 29.502C160.347 29.502 159.748 28.9034 159.748 27.7253C159.748 27.2812 159.825 26.837 159.999 26.3542C160.173 25.8714 160.385 25.4079 160.675 24.9637C160.965 24.5196 161.312 24.0754 161.698 23.6698C162.085 23.2643 162.529 22.8974 162.973 22.5884C163.436 22.2794 163.919 22.0283 164.421 21.8545C164.924 21.6807 165.445 21.5842 165.966 21.5842C166.488 21.5842 166.893 21.7194 167.183 22.009C167.434 22.2987 167.589 22.6849 167.589 23.1677ZM166.024 23.805C166.024 23.2836 165.947 22.936 165.773 22.7236C165.599 22.5304 165.329 22.4146 164.904 22.4146C163.977 22.4146 163.166 22.9553 162.413 24.0561C161.66 25.1376 161.293 26.277 161.293 27.4743C161.293 27.8605 161.389 28.1502 161.563 28.4013C161.737 28.633 162.027 28.7489 162.452 28.7489C162.799 28.7489 163.128 28.6523 163.436 28.4785C163.745 28.3047 164.035 28.073 164.306 27.7833C164.576 27.4936 164.808 27.1653 165.02 26.8177C165.232 26.4508 165.406 26.1031 165.561 25.7362C165.715 25.3693 165.831 25.0217 165.908 24.6741C165.966 24.3458 166.024 24.0561 166.024 23.805Z" fill="#D3AF4A"/>
<path d="M173.073 22.1442C173.073 22.5305 172.899 22.9553 172.552 23.4574C172.204 23.9595 171.683 24.6161 171.007 25.4272C170.678 25.8135 170.427 26.1225 170.234 26.3735C170.041 26.6246 169.887 26.8563 169.79 27.0301C169.694 27.2039 169.616 27.3584 169.578 27.4936C169.539 27.6288 169.52 27.7254 169.52 27.8412C169.52 28.015 169.578 28.1502 169.694 28.2081C169.809 28.2661 169.925 28.3047 170.022 28.3047C170.196 28.3047 170.35 28.2854 170.524 28.2275C170.698 28.1695 170.852 28.0923 171.026 27.9957C171.2 27.8992 171.354 27.8026 171.49 27.6867C171.644 27.5709 171.779 27.4743 171.895 27.3777L172.088 27.6095C171.818 27.8412 171.547 28.0923 171.277 28.324C171.007 28.5558 170.736 28.7682 170.447 28.9613C170.157 29.1351 169.867 29.2896 169.578 29.4055C169.288 29.5214 168.979 29.5793 168.651 29.5793C168.342 29.5793 168.129 29.5214 168.013 29.4055C167.898 29.2896 167.84 29.1351 167.84 28.942C167.84 28.7875 167.878 28.6137 167.975 28.4206C168.071 28.2275 168.206 28.015 168.4 27.7447C168.593 27.4743 168.844 27.1653 169.153 26.7984C169.462 26.4315 169.829 26.0066 170.254 25.4852C170.524 25.1569 170.736 24.8865 170.891 24.6355C171.045 24.4037 171.181 24.172 171.258 23.9982C171.335 23.805 171.393 23.6505 171.412 23.4961C171.432 23.3609 171.432 23.2064 171.432 23.0712C171.432 22.9167 171.374 22.8008 171.277 22.7429C171.181 22.685 171.045 22.6656 170.91 22.6656C170.775 22.6656 170.64 22.7043 170.466 22.7622C170.292 22.8201 170.138 22.8974 169.964 22.9939C169.79 23.0905 169.616 23.2064 169.442 23.3222C169.269 23.4574 169.114 23.5733 168.96 23.7085L168.767 23.4767C169.018 23.2836 169.269 23.0712 169.558 22.8588C169.848 22.6463 170.138 22.4339 170.466 22.2601C170.775 22.0863 171.103 21.9318 171.451 21.7966C171.779 21.6807 172.127 21.6228 172.455 21.6228C172.59 21.6228 172.725 21.6614 172.861 21.7194C173.015 21.758 173.073 21.9125 173.073 22.1442Z" fill="#D3AF4A"/>
<path d="M182.787 21.758C182.787 21.7773 182.71 21.9511 182.555 22.2601C182.401 22.5691 182.227 22.9553 182.034 23.4188L180.856 26.1611C180.798 26.2963 180.74 26.4315 180.663 26.6053C180.585 26.7791 180.508 26.9336 180.45 27.1074C180.392 27.2812 180.334 27.4357 180.276 27.5709C180.218 27.7254 180.199 27.8413 180.199 27.9185C180.199 28.073 180.276 28.1502 180.45 28.1502C180.547 28.1502 180.701 28.0923 180.952 27.9571C181.203 27.8219 181.57 27.5902 182.034 27.2619L182.188 27.6288C181.377 28.2854 180.721 28.7682 180.18 29.0579C179.639 29.3669 179.214 29.5214 178.886 29.5214C178.616 29.5214 178.48 29.3862 178.48 29.1351C178.48 29 178.5 28.8455 178.538 28.6717C178.577 28.4979 178.635 28.3241 178.712 28.1309C178.789 27.9378 178.867 27.7447 178.944 27.5516C179.021 27.3585 179.098 27.1653 179.176 26.9915C179.407 26.4701 179.6 26.0452 179.755 25.6976C179.909 25.35 180.045 25.0603 180.141 24.8479C180.238 24.6162 180.334 24.4424 180.392 24.3072C180.45 24.172 180.508 24.0368 180.566 23.9403H180.392L179.871 24.5003C179.504 24.9058 179.098 25.3307 178.673 25.7942C178.249 26.2577 177.804 26.7019 177.38 27.1267C176.955 27.5709 176.511 27.9571 176.105 28.3434C175.68 28.7103 175.294 29.0193 174.966 29.2703C174.869 29.3476 174.753 29.4055 174.618 29.4441C174.483 29.4828 174.348 29.5214 174.232 29.5214C174.097 29.5214 173.981 29.4828 173.923 29.4055C173.846 29.3283 173.826 29.2317 173.826 29.1158C173.826 29.0193 173.846 28.8841 173.884 28.7103C173.923 28.5365 174 28.3241 174.097 28.0923C174.328 27.5516 174.56 26.9915 174.83 26.4122C175.081 25.8328 175.313 25.3114 175.526 24.8286C175.738 24.3458 175.912 23.9209 176.047 23.5733C176.182 23.2257 176.24 22.9747 176.24 22.8781C176.24 22.7815 176.182 22.7236 176.086 22.7236C175.912 22.7236 175.622 22.8202 175.178 23.0326L174.541 23.3609L174.425 23.0326C174.637 22.8974 174.888 22.7622 175.178 22.6077C175.487 22.4532 175.777 22.2987 176.105 22.1636C176.414 22.0284 176.723 21.9125 177.013 21.8159C177.302 21.7194 177.553 21.6615 177.785 21.6615C177.94 21.6615 178.017 21.7387 178.017 21.8932C178.017 21.9898 177.959 22.2022 177.824 22.5498C177.689 22.8974 177.534 23.2643 177.36 23.6892C177.186 24.1141 177.013 24.5196 176.82 24.9252C176.626 25.3307 176.491 25.6204 176.414 25.8328C176.008 26.7598 175.796 27.2619 175.796 27.3585C175.796 27.513 175.854 27.5902 175.951 27.5902C176.047 27.5902 176.221 27.4936 176.453 27.3198C176.684 27.146 176.955 26.895 177.244 26.6246C177.534 26.3349 177.843 26.0259 178.171 25.6783C178.5 25.3307 178.789 24.9831 179.098 24.6741C179.388 24.3458 179.658 24.0561 179.89 23.7858C180.122 23.5154 180.276 23.3223 180.392 23.1871L180.933 22.5691C181.03 22.4726 181.107 22.3953 181.203 22.3181C181.3 22.2408 181.377 22.1829 181.474 22.1249C181.899 21.8353 182.304 21.7001 182.652 21.7001C182.729 21.6035 182.787 21.6615 182.787 21.758Z" fill="#D3AF4A"/>
<path d="M192.308 21.758C192.308 21.7773 192.23 21.9511 192.076 22.2601C191.921 22.5691 191.748 22.9553 191.554 23.4188L190.376 26.1611C190.318 26.2963 190.261 26.4315 190.183 26.6053C190.106 26.7791 190.029 26.9336 189.971 27.1074C189.913 27.2812 189.855 27.4357 189.797 27.5709C189.739 27.7254 189.72 27.8413 189.72 27.9185C189.72 28.073 189.797 28.1502 189.971 28.1502C190.067 28.1502 190.222 28.0923 190.473 27.9571C190.724 27.8219 191.091 27.5902 191.554 27.2619L191.709 27.6288C190.898 28.2854 190.241 28.7682 189.7 29.0579C189.16 29.3669 188.735 29.5214 188.407 29.5214C188.136 29.5214 188.001 29.3862 188.001 29.1351C188.001 29 188.02 28.8455 188.059 28.6717C188.098 28.4979 188.156 28.3241 188.233 28.1309C188.31 27.9378 188.387 27.7447 188.465 27.5516C188.542 27.3585 188.619 27.1653 188.696 26.9915C188.928 26.4701 189.121 26.0452 189.276 25.6976C189.43 25.35 189.565 25.0603 189.662 24.8479C189.758 24.6162 189.855 24.4424 189.913 24.3072C189.971 24.172 190.029 24.0368 190.087 23.9403H189.913L189.391 24.5003C189.025 24.9058 188.619 25.3307 188.194 25.7942C187.769 26.2577 187.325 26.7019 186.9 27.1267C186.475 27.5709 186.031 27.9571 185.626 28.3434C185.201 28.7103 184.815 29.0193 184.486 29.2703C184.39 29.3476 184.274 29.4055 184.139 29.4441C184.003 29.4828 183.868 29.5214 183.752 29.5214C183.617 29.5214 183.501 29.4828 183.443 29.4055C183.366 29.3283 183.347 29.2317 183.347 29.1158C183.347 29.0193 183.366 28.8841 183.405 28.7103C183.443 28.5365 183.521 28.3241 183.617 28.0923C183.849 27.5516 184.081 26.9915 184.351 26.4122C184.602 25.8328 184.834 25.3114 185.046 24.8286C185.259 24.3458 185.433 23.9209 185.568 23.5733C185.703 23.2257 185.761 22.9747 185.761 22.8781C185.761 22.7815 185.703 22.7236 185.606 22.7236C185.433 22.7236 185.143 22.8202 184.699 23.0326L184.061 23.3609L183.946 23.0326C184.158 22.8974 184.409 22.7622 184.699 22.6077C185.008 22.4532 185.297 22.2987 185.626 22.1636C185.935 22.0284 186.244 21.9125 186.533 21.8159C186.823 21.7194 187.074 21.6615 187.306 21.6615C187.46 21.6615 187.538 21.7387 187.538 21.8932C187.538 21.9898 187.48 22.2022 187.344 22.5498C187.209 22.8974 187.055 23.2643 186.881 23.6892C186.707 24.1141 186.533 24.5196 186.34 24.9252C186.147 25.3307 186.012 25.6204 185.935 25.8328C185.529 26.7598 185.317 27.2619 185.317 27.3585C185.317 27.513 185.375 27.5902 185.471 27.5902C185.568 27.5902 185.742 27.4936 185.973 27.3198C186.205 27.146 186.475 26.895 186.765 26.6246C187.055 26.3349 187.364 26.0259 187.692 25.6783C188.02 25.3307 188.31 24.9831 188.619 24.6741C188.909 24.3458 189.179 24.0561 189.411 23.7858C189.643 23.5154 189.797 23.3223 189.913 23.1871L190.454 22.5691C190.55 22.4726 190.627 22.3953 190.724 22.3181C190.821 22.2408 190.898 22.1829 190.994 22.1249C191.419 21.8353 191.825 21.7001 192.172 21.7001C192.25 21.6035 192.308 21.6615 192.308 21.758Z" fill="#D3AF4A"/>
<path d="M50.4639 46.6076C50.0757 46.6076 49.7136 46.5381 49.3776 46.399C49.0473 46.26 48.7577 46.0572 48.5085 45.7907C48.2652 45.5242 48.0711 45.1968 47.9263 44.8087C47.7872 44.4147 47.7177 43.9657 47.7177 43.4617C47.7177 42.9576 47.793 42.5115 47.9437 42.1234C48.1001 41.7294 48.3058 41.3992 48.5607 41.1327C48.8156 40.8662 49.1111 40.6663 49.4471 40.533C49.7831 40.394 50.1336 40.3245 50.4986 40.3245C50.7246 40.3245 50.9302 40.3389 51.1156 40.3679C51.301 40.3969 51.4633 40.4345 51.6023 40.4809C51.7413 40.5214 51.8601 40.5649 51.9586 40.6112C52.0571 40.6518 52.1324 40.6895 52.1846 40.7242L51.9934 41.2369C51.8485 41.15 51.6631 41.066 51.4372 40.9849C51.217 40.898 50.9418 40.8546 50.6116 40.8546C50.235 40.8546 49.9048 40.9183 49.6209 41.0458C49.3428 41.1732 49.1082 41.3528 48.917 41.5846C48.7258 41.8163 48.581 42.0915 48.4825 42.4101C48.3898 42.7288 48.3434 43.0822 48.3434 43.4704C48.3434 43.8701 48.3898 44.2322 48.4825 44.5567C48.581 44.8753 48.7229 45.1476 48.9083 45.3736C49.0937 45.5995 49.3196 45.7733 49.5861 45.895C49.8584 46.0166 50.1684 46.0775 50.516 46.0775C50.8984 46.0775 51.217 46.0427 51.4719 45.9732C51.7327 45.8979 51.9296 45.8226 52.0629 45.7472L52.228 46.2513C52.1874 46.2802 52.1179 46.315 52.0194 46.3556C51.9209 46.3903 51.7964 46.428 51.6457 46.4685C51.4951 46.5091 51.3213 46.541 51.1243 46.5641C50.9273 46.5931 50.7072 46.6076 50.4639 46.6076Z" fill="#D3AF4A"/>
<path d="M56.3679 42.7056C56.1941 42.9142 55.9913 43.1778 55.7595 43.4964C55.5336 43.8151 55.3019 44.1511 55.0643 44.5045C54.8326 44.8579 54.6095 45.2084 54.3952 45.556C54.1808 45.9037 53.9954 46.2107 53.839 46.4772H53.3089V41.9843H53.865V45.5821C54.0041 45.333 54.175 45.0462 54.3778 44.7218C54.5863 44.3915 54.8065 44.0613 55.0382 43.7311C55.27 43.395 55.5017 43.0735 55.7335 42.7664C55.971 42.4594 56.1912 42.1987 56.3939 41.9843H56.9241V46.4772H56.3679V42.7056Z" fill="#D3AF4A"/>
<path d="M59.8344 42.4623V42.6448C59.8344 42.8186 59.8315 43.0098 59.8257 43.2183C59.8199 43.4211 59.8083 43.6297 59.7909 43.8441C59.7735 44.0584 59.7446 44.2728 59.704 44.4871C59.6692 44.6957 59.6229 44.8927 59.565 45.0781C59.5012 45.2693 59.4201 45.4518 59.3216 45.6256C59.2289 45.7936 59.116 45.9442 58.9827 46.0775C58.8553 46.2049 58.7046 46.3121 58.5308 46.399C58.3628 46.4801 58.1716 46.5323 57.9573 46.5554L57.879 46.0862C58.1687 46.0224 58.4005 45.9037 58.5743 45.7299C58.7539 45.556 58.9016 45.3098 59.0175 44.9912C59.1333 44.6725 59.2058 44.3075 59.2347 43.8962C59.2695 43.4791 59.2869 43.0243 59.2869 42.5318V41.9843H62.0504V46.4772H61.4855V42.4623H59.8344Z" fill="#D3AF4A"/>
<path d="M63.6327 41.9843H64.1976V43.7832C64.3019 43.7543 64.4554 43.7253 64.6582 43.6963C64.8668 43.6616 65.0811 43.6442 65.3013 43.6442C65.5446 43.6442 65.7734 43.6702 65.9878 43.7224C66.2022 43.7745 66.3905 43.8585 66.5527 43.9744C66.7149 44.0903 66.8424 44.2409 66.9351 44.4263C67.0335 44.6117 67.0828 44.8376 67.0828 45.1042C67.0828 45.3707 67.0335 45.5966 66.9351 45.782C66.8424 45.9674 66.712 46.1209 66.544 46.2426C66.3818 46.3585 66.1848 46.4425 65.953 46.4946C65.7271 46.5467 65.4838 46.5728 65.2231 46.5728C65.0666 46.5728 64.9073 46.567 64.7451 46.5554C64.5887 46.5439 64.4409 46.5294 64.3019 46.512C64.1628 46.4946 64.0354 46.4743 63.9195 46.4512C63.8036 46.428 63.708 46.4019 63.6327 46.3729V41.9843ZM65.2231 46.0688C65.6112 46.0688 65.9212 45.9964 66.1529 45.8515C66.3847 45.7009 66.5005 45.4518 66.5005 45.1042C66.5005 44.9419 66.4687 44.8 66.4049 44.6783C66.3412 44.5567 66.2543 44.4582 66.1442 44.3829C66.04 44.3017 65.9125 44.2438 65.7619 44.209C65.617 44.1685 65.4577 44.1482 65.2839 44.1482C65.0927 44.1482 64.9015 44.1569 64.7103 44.1743C64.5191 44.1917 64.3482 44.2264 64.1976 44.2786V45.9819C64.2729 45.9993 64.4062 46.0195 64.5974 46.0427C64.7885 46.0601 64.9971 46.0688 65.2231 46.0688Z" fill="#D3AF4A"/>
<path d="M71.7384 46.4772H71.1735V44.3829H68.7315V46.4772H68.1666V41.9843H68.7315V43.9049H71.1735V41.9843H71.7384V46.4772Z" fill="#D3AF4A"/>
<path d="M73.3201 41.9843H73.885V43.7832C73.9892 43.7543 74.1428 43.7253 74.3455 43.6963C74.5483 43.6616 74.7511 43.6442 74.9539 43.6442C75.1798 43.6442 75.3971 43.6702 75.6056 43.7224C75.82 43.7745 76.0054 43.8585 76.1618 43.9744C76.3241 44.0903 76.4515 44.2409 76.5442 44.4263C76.6427 44.6117 76.6919 44.8376 76.6919 45.1042C76.6919 45.3707 76.6427 45.5966 76.5442 45.782C76.4515 45.9674 76.3241 46.1209 76.1618 46.2426C75.9996 46.3585 75.8055 46.4425 75.5796 46.4946C75.3594 46.5467 75.1248 46.5728 74.8757 46.5728C74.725 46.5728 74.5715 46.567 74.4151 46.5554C74.2644 46.5439 74.1196 46.5294 73.9806 46.512C73.8473 46.4946 73.7227 46.4743 73.6069 46.4512C73.491 46.428 73.3954 46.4019 73.3201 46.3729V41.9843ZM74.8757 46.0688C75.2407 46.0688 75.5361 45.9935 75.7621 45.8428C75.9938 45.6922 76.1097 45.446 76.1097 45.1042C76.1097 44.9419 76.0778 44.8 76.0141 44.6783C75.9504 44.5567 75.8635 44.4582 75.7534 44.3829C75.6491 44.3017 75.5245 44.2438 75.3797 44.209C75.2407 44.1685 75.0929 44.1482 74.9365 44.1482C74.7569 44.1482 74.5744 44.1569 74.389 44.1743C74.2036 44.1917 74.0356 44.2264 73.885 44.2786V45.9819C73.9603 45.9993 74.0906 46.0195 74.276 46.0427C74.4614 46.0601 74.6613 46.0688 74.8757 46.0688ZM78.2041 46.4772H77.6392V41.9843H78.2041V46.4772Z" fill="#D3AF4A"/>
<path d="M82.848 42.7056C82.6742 42.9142 82.4714 43.1778 82.2396 43.4964C82.0137 43.8151 81.782 44.1511 81.5444 44.5045C81.3127 44.8579 81.0896 45.2084 80.8753 45.556C80.6609 45.9037 80.4755 46.2107 80.3191 46.4772H79.789V41.9843H80.3451V45.5821C80.4842 45.333 80.6551 45.0462 80.8579 44.7218C81.0664 44.3915 81.2866 44.0613 81.5183 43.7311C81.7501 43.395 81.9818 43.0735 82.2136 42.7664C82.4511 42.4594 82.6713 42.1987 82.874 41.9843H83.4042V46.4772H82.848V42.7056ZM81.5966 41.2196C81.2721 41.2196 81.0056 41.1298 80.797 40.9502C80.5885 40.7706 80.4552 40.5156 80.3973 40.1854L80.8579 40.0638C80.8926 40.2607 80.968 40.423 81.0838 40.5504C81.2055 40.6721 81.3764 40.7329 81.5966 40.7329C81.8167 40.7329 81.9847 40.6721 82.1006 40.5504C82.2223 40.423 82.3005 40.2607 82.3352 40.0638L82.7958 40.1854C82.7379 40.5156 82.6046 40.7706 82.3961 40.9502C82.1875 41.1298 81.921 41.2196 81.5966 41.2196Z" fill="#D3AF4A"/>
<path d="M88.457 44.4437C88.3295 44.6117 88.2021 44.7884 88.0746 44.9738C87.9471 45.1592 87.8226 45.3417 87.7009 45.5213C87.585 45.7009 87.4779 45.8747 87.3794 46.0427C87.2809 46.2049 87.1969 46.3498 87.1274 46.4772H86.5451C86.7826 46.0311 87.0318 45.6169 87.2925 45.2345C87.5532 44.8463 87.8197 44.4669 88.092 44.0961L86.632 41.9843H87.2925L88.457 43.705L89.6389 41.9843H90.2559L88.822 44.0613C88.9436 44.2235 89.074 44.4002 89.213 44.5914C89.3521 44.7826 89.4911 44.9825 89.6302 45.1911C89.7692 45.3938 89.9025 45.6053 90.0299 45.8254C90.1632 46.0456 90.2848 46.2629 90.3949 46.4772H89.7866C89.7171 46.3498 89.6331 46.2049 89.5346 46.0427C89.4361 45.8747 89.326 45.7009 89.2043 45.5213C89.0885 45.3417 88.9639 45.1592 88.8307 44.9738C88.7032 44.7884 88.5786 44.6117 88.457 44.4437Z" fill="#D3AF4A"/>
<path d="M95.2203 44.2351C95.2203 44.5885 95.1682 44.9101 95.0639 45.1997C94.9654 45.4894 94.8234 45.7356 94.6381 45.9384C94.4585 46.1412 94.2441 46.3005 93.995 46.4164C93.7458 46.5265 93.4706 46.5815 93.1694 46.5815C92.8681 46.5815 92.5929 46.5265 92.3438 46.4164C92.0947 46.3005 91.8774 46.1412 91.692 45.9384C91.5124 45.7356 91.3705 45.4894 91.2662 45.1997C91.1677 44.9101 91.1185 44.5885 91.1185 44.2351C91.1185 43.8817 91.1677 43.5602 91.2662 43.2705C91.3705 42.9808 91.5124 42.7346 91.692 42.5318C91.8774 42.3232 92.0947 42.1639 92.3438 42.0538C92.5929 41.938 92.8681 41.88 93.1694 41.88C93.4706 41.88 93.7458 41.938 93.995 42.0538C94.2441 42.1639 94.4585 42.3232 94.6381 42.5318C94.8234 42.7346 94.9654 42.9808 95.0639 43.2705C95.1682 43.5602 95.2203 43.8817 95.2203 44.2351ZM94.6207 44.2351C94.6207 43.6731 94.4903 43.227 94.2296 42.8968C93.9689 42.5608 93.6155 42.3928 93.1694 42.3928C92.7233 42.3928 92.3699 42.5608 92.1092 42.8968C91.8485 43.227 91.7181 43.6731 91.7181 44.2351C91.7181 44.7971 91.8485 45.2432 92.1092 45.5734C92.3699 45.9037 92.7233 46.0688 93.1694 46.0688C93.6155 46.0688 93.9689 45.9037 94.2296 45.5734C94.4903 45.2432 94.6207 44.7971 94.6207 44.2351Z" fill="#D3AF4A"/>
<path d="M99.9916 45.9993H100.504V47.7199H99.9568V46.4772H96.4633V47.7199H95.9158V45.9993H96.3764C96.5676 45.698 96.7182 45.4083 96.8283 45.1302C96.9442 44.8521 97.0311 44.5682 97.089 44.2786C97.1527 43.9889 97.1933 43.6847 97.2107 43.3661C97.2338 43.0416 97.2454 42.6882 97.2454 42.3059V41.9843H99.9916V45.9993ZM97.7755 42.4623C97.7755 42.7751 97.764 43.0822 97.7408 43.3835C97.7234 43.6847 97.6857 43.9831 97.6278 44.2786C97.5699 44.574 97.4888 44.8666 97.3845 45.1563C97.2802 45.4402 97.144 45.7212 96.976 45.9993H99.4267V42.4623H97.7755Z" fill="#D3AF4A"/>
<path d="M102.409 46.1035C102.409 46.2368 102.366 46.3498 102.279 46.4425C102.198 46.5352 102.082 46.5815 101.931 46.5815C101.781 46.5815 101.662 46.5352 101.575 46.4425C101.494 46.3498 101.453 46.2368 101.453 46.1035C101.453 45.9703 101.494 45.8573 101.575 45.7646C101.662 45.6719 101.781 45.6256 101.931 45.6256C102.082 45.6256 102.198 45.6719 102.279 45.7646C102.366 45.8573 102.409 45.9703 102.409 46.1035Z" fill="#D3AF4A"/>
<path d="M107.855 44.3655C107.977 44.0932 108.101 43.7977 108.229 43.4791C108.356 43.1546 108.481 42.8215 108.602 42.4797C108.724 42.1321 108.837 41.7873 108.941 41.4455C109.051 41.0979 109.147 40.7677 109.228 40.4548H109.854C109.738 40.8546 109.619 41.2341 109.498 41.5933C109.382 41.9467 109.26 42.2914 109.133 42.6274C109.011 42.9576 108.883 43.285 108.75 43.6094C108.617 43.9281 108.478 44.2496 108.333 44.574C108.24 44.7826 108.139 45.0028 108.029 45.2345C107.919 45.4662 107.783 45.6806 107.62 45.8776C107.458 46.0688 107.258 46.2281 107.021 46.3556C106.789 46.4772 106.502 46.5381 106.16 46.5381C106.01 46.5381 105.877 46.5207 105.761 46.4859C105.651 46.4569 105.569 46.428 105.517 46.399L105.63 45.9124C105.671 45.9355 105.738 45.9645 105.83 45.9993C105.923 46.0282 106.045 46.0427 106.195 46.0427C106.392 46.0427 106.563 46.0137 106.708 45.9558C106.859 45.8921 106.986 45.811 107.09 45.7125C107.2 45.614 107.296 45.4981 107.377 45.3649C107.458 45.2316 107.531 45.0926 107.594 44.9477C107.328 44.5422 107.079 44.1337 106.847 43.7224C106.621 43.311 106.412 42.9113 106.221 42.5231C106.036 42.1349 105.865 41.7671 105.709 41.4194C105.558 41.066 105.425 40.7445 105.309 40.4548H105.969C106.166 40.9878 106.421 41.5961 106.734 42.2798C107.053 42.9634 107.426 43.6587 107.855 44.3655Z" fill="#D3AF4A"/>
<path d="M112.165 41.8887C112.339 41.8887 112.533 41.9003 112.747 41.9235C112.967 41.9409 113.173 41.9901 113.364 42.0712C113.555 42.1465 113.715 42.2682 113.842 42.4362C113.975 42.5984 114.042 42.8215 114.042 43.1054C114.042 43.3255 113.978 43.5225 113.851 43.6963C113.723 43.8643 113.55 43.9889 113.329 44.07C113.654 44.1569 113.889 44.2959 114.033 44.4871C114.178 44.6783 114.251 44.913 114.251 45.1911C114.251 45.4923 114.19 45.7356 114.068 45.921C113.947 46.1006 113.784 46.2397 113.582 46.3382C113.385 46.4309 113.159 46.4917 112.904 46.5207C112.655 46.5496 112.4 46.5641 112.139 46.5641C111.826 46.5641 111.551 46.5439 111.313 46.5033C111.082 46.4627 110.882 46.4193 110.714 46.3729V42.0799C110.859 42.0336 111.05 41.9901 111.287 41.9496C111.525 41.909 111.817 41.8887 112.165 41.8887ZM111.279 43.8701H112.304C112.652 43.8701 112.933 43.8122 113.147 43.6963C113.361 43.5804 113.469 43.3864 113.469 43.1141C113.469 42.9403 113.431 42.8041 113.356 42.7056C113.28 42.6071 113.182 42.5347 113.06 42.4884C112.938 42.4362 112.799 42.4044 112.643 42.3928C112.487 42.3754 112.33 42.3667 112.174 42.3667C111.982 42.3667 111.8 42.3783 111.626 42.4015C111.452 42.4188 111.337 42.4362 111.279 42.4536V43.8701ZM111.279 44.3394V45.9906C111.308 46.0022 111.354 46.0137 111.418 46.0253C111.487 46.0311 111.562 46.0398 111.644 46.0514C111.73 46.0572 111.82 46.063 111.913 46.0688C112.011 46.0746 112.104 46.0775 112.191 46.0775C112.388 46.0775 112.576 46.0659 112.756 46.0427C112.936 46.0195 113.092 45.9761 113.225 45.9124C113.358 45.8428 113.466 45.753 113.547 45.643C113.628 45.5271 113.668 45.3764 113.668 45.1911C113.668 45.0288 113.634 44.8927 113.564 44.7826C113.5 44.6725 113.408 44.5856 113.286 44.5219C113.17 44.4582 113.031 44.4118 112.869 44.3829C112.712 44.3539 112.542 44.3394 112.356 44.3394H111.279Z" fill="#D3AF4A"/>
<path d="M115.275 44.2264C115.275 43.8325 115.33 43.4906 115.44 43.201C115.556 42.9055 115.704 42.6593 115.884 42.4623C116.069 42.2653 116.278 42.1205 116.509 42.0278C116.747 41.9293 116.99 41.88 117.239 41.88C117.79 41.88 118.227 42.0596 118.552 42.4188C118.882 42.778 119.047 43.3313 119.047 44.0787C119.047 44.125 119.044 44.1714 119.038 44.2177C119.038 44.2641 119.035 44.3075 119.029 44.3481H115.875C115.892 44.8985 116.028 45.3214 116.283 45.6169C116.538 45.9124 116.944 46.0601 117.5 46.0601C117.807 46.0601 118.05 46.0311 118.23 45.9732C118.41 45.9152 118.54 45.866 118.621 45.8254L118.725 46.3121C118.644 46.3585 118.491 46.4135 118.265 46.4772C118.045 46.541 117.784 46.5728 117.483 46.5728C117.089 46.5728 116.753 46.5149 116.475 46.399C116.196 46.2831 115.968 46.1209 115.788 45.9124C115.608 45.7038 115.478 45.4576 115.397 45.1737C115.316 44.884 115.275 44.5682 115.275 44.2264ZM118.465 43.8701C118.453 43.4008 118.343 43.0358 118.134 42.7751C117.926 42.5144 117.63 42.3841 117.248 42.3841C117.045 42.3841 116.863 42.4246 116.7 42.5057C116.544 42.5868 116.405 42.6969 116.283 42.836C116.167 42.9692 116.075 43.1256 116.005 43.3052C115.942 43.4848 115.904 43.6731 115.892 43.8701H118.465Z" fill="#D3AF4A"/>
<path d="M120.957 45.669C121.01 45.7096 121.073 45.753 121.149 45.7994C121.23 45.8457 121.322 45.8892 121.427 45.9297C121.531 45.9703 121.644 46.005 121.766 46.034C121.887 46.0572 122.015 46.0688 122.148 46.0688C122.426 46.0688 122.658 46.0224 122.843 45.9297C123.034 45.8312 123.188 45.7009 123.304 45.5387C123.42 45.3707 123.504 45.1766 123.556 44.9564C123.608 44.7305 123.634 44.4929 123.634 44.2438C123.634 43.6529 123.486 43.201 123.191 42.8881C122.895 42.5695 122.504 42.4101 122.018 42.4101C121.74 42.4101 121.514 42.4246 121.34 42.4536C121.172 42.4768 121.044 42.5028 120.957 42.5318V45.669ZM120.957 48.0849H120.393V42.1407C120.561 42.0828 120.775 42.0278 121.036 41.9756C121.296 41.9235 121.627 41.8974 122.026 41.8974C122.357 41.8974 122.655 41.9525 122.921 42.0625C123.194 42.1668 123.426 42.3203 123.617 42.5231C123.814 42.7259 123.964 42.9721 124.069 43.2618C124.179 43.5515 124.234 43.8788 124.234 44.2438C124.234 44.5856 124.187 44.9014 124.095 45.1911C124.008 45.4749 123.877 45.7212 123.704 45.9297C123.53 46.1325 123.315 46.2918 123.061 46.4077C122.811 46.5236 122.525 46.5815 122.2 46.5815C121.905 46.5815 121.647 46.541 121.427 46.4598C121.212 46.3729 121.056 46.2918 120.957 46.2165V48.0849Z" fill="#D3AF4A"/>
<path d="M125.277 44.2264C125.277 43.8325 125.332 43.4906 125.442 43.201C125.558 42.9055 125.705 42.6593 125.885 42.4623C126.07 42.2653 126.279 42.1205 126.511 42.0278C126.748 41.9293 126.992 41.88 127.241 41.88C127.791 41.88 128.228 42.0596 128.553 42.4188C128.883 42.778 129.048 43.3313 129.048 44.0787C129.048 44.125 129.045 44.1714 129.04 44.2177C129.04 44.2641 129.037 44.3075 129.031 44.3481H125.876C125.894 44.8985 126.03 45.3214 126.285 45.6169C126.54 45.9124 126.945 46.0601 127.501 46.0601C127.808 46.0601 128.052 46.0311 128.231 45.9732C128.411 45.9152 128.541 45.866 128.622 45.8254L128.727 46.3121C128.646 46.3585 128.492 46.4135 128.266 46.4772C128.046 46.541 127.785 46.5728 127.484 46.5728C127.09 46.5728 126.754 46.5149 126.476 46.399C126.198 46.2831 125.969 46.1209 125.789 45.9124C125.61 45.7038 125.479 45.4576 125.398 45.1737C125.317 44.884 125.277 44.5682 125.277 44.2264ZM128.466 43.8701C128.454 43.4008 128.344 43.0358 128.136 42.7751C127.927 42.5144 127.632 42.3841 127.249 42.3841C127.047 42.3841 126.864 42.4246 126.702 42.5057C126.545 42.5868 126.406 42.6969 126.285 42.836C126.169 42.9692 126.076 43.1256 126.007 43.3052C125.943 43.4848 125.905 43.6731 125.894 43.8701H128.466Z" fill="#D3AF4A"/>
<path d="M133.966 46.4772H133.401V44.3829H130.959V46.4772H130.394V41.9843H130.959V43.9049H133.401V41.9843H133.966V46.4772Z" fill="#D3AF4A"/>
<path d="M139.119 46.4772H138.554V44.3829H136.112V46.4772H135.547V41.9843H136.112V43.9049H138.554V41.9843H139.119V46.4772Z" fill="#D3AF4A"/>
<path d="M142.117 46.0688C142.338 46.0688 142.529 46.063 142.691 46.0514C142.859 46.034 143.001 46.0137 143.117 45.9906V44.4089C143.053 44.38 142.952 44.351 142.813 44.322C142.674 44.2873 142.482 44.2699 142.239 44.2699C142.1 44.2699 141.955 44.2815 141.805 44.3046C141.654 44.322 141.515 44.3655 141.387 44.435C141.26 44.4987 141.156 44.5885 141.075 44.7044C140.993 44.8203 140.953 44.9738 140.953 45.165C140.953 45.333 140.979 45.4749 141.031 45.5908C141.089 45.7067 141.167 45.7994 141.266 45.8689C141.37 45.9384 141.492 45.9906 141.631 46.0253C141.776 46.0543 141.938 46.0688 142.117 46.0688ZM142.065 41.88C142.361 41.88 142.61 41.9235 142.813 42.0104C143.021 42.0915 143.189 42.2074 143.317 42.358C143.444 42.5028 143.537 42.6766 143.595 42.8794C143.653 43.0822 143.682 43.3024 143.682 43.5399V46.3729C143.624 46.3903 143.54 46.4106 143.43 46.4338C143.32 46.4512 143.192 46.4714 143.047 46.4946C142.902 46.5178 142.74 46.5352 142.561 46.5467C142.387 46.5641 142.207 46.5728 142.022 46.5728C141.784 46.5728 141.564 46.5467 141.361 46.4946C141.164 46.4425 140.991 46.3614 140.84 46.2513C140.695 46.1354 140.579 45.9906 140.492 45.8168C140.411 45.6372 140.371 45.4199 140.371 45.165C140.371 44.9217 140.417 44.7131 140.51 44.5393C140.602 44.3655 140.733 44.2235 140.901 44.1135C141.069 43.9976 141.269 43.9136 141.5 43.8614C141.732 43.8093 141.984 43.7832 142.256 43.7832C142.338 43.7832 142.422 43.789 142.508 43.8006C142.601 43.8064 142.688 43.818 142.769 43.8354C142.856 43.8469 142.928 43.8614 142.986 43.8788C143.05 43.8904 143.094 43.902 143.117 43.9136V43.6355C143.117 43.4791 143.105 43.3284 143.082 43.1836C143.059 43.033 143.007 42.8997 142.926 42.7838C142.85 42.6622 142.74 42.5666 142.595 42.497C142.456 42.4217 142.271 42.3841 142.039 42.3841C141.709 42.3841 141.463 42.4072 141.3 42.4536C141.138 42.4999 141.019 42.5376 140.944 42.5666L140.866 42.0712C140.964 42.0249 141.115 41.9814 141.318 41.9409C141.526 41.9003 141.776 41.88 142.065 41.88Z" fill="#D3AF4A"/>
<path d="M146.374 44.6436C146.287 44.7768 146.191 44.9217 146.087 45.0781C145.989 45.2345 145.89 45.3938 145.792 45.556C145.699 45.7183 145.609 45.8805 145.522 46.0427C145.435 46.1991 145.363 46.344 145.305 46.4772H144.723C144.873 46.1354 145.056 45.7907 145.27 45.4431C145.484 45.0955 145.684 44.7913 145.87 44.5306C145.754 44.4958 145.641 44.4466 145.531 44.3829C145.427 44.3191 145.331 44.238 145.244 44.1395C145.163 44.041 145.096 43.9252 145.044 43.7919C144.992 43.6529 144.966 43.4964 144.966 43.3226C144.966 43.0735 145.012 42.8591 145.105 42.6795C145.204 42.4999 145.334 42.3522 145.496 42.2363C145.664 42.1205 145.861 42.0336 146.087 41.9756C146.319 41.9177 146.565 41.8887 146.826 41.8887C146.942 41.8887 147.069 41.8945 147.208 41.9061C147.353 41.9177 147.495 41.9351 147.634 41.9582C147.779 41.9756 147.912 41.9959 148.034 42.0191C148.155 42.0423 148.257 42.0654 148.338 42.0886V46.4772H147.773V44.6696H146.965C146.837 44.6696 146.721 44.6696 146.617 44.6696C146.519 44.6638 146.438 44.6551 146.374 44.6436ZM147.773 42.471C147.703 42.4536 147.59 42.4362 147.434 42.4188C147.278 42.3957 147.078 42.3841 146.834 42.3841C146.672 42.3841 146.513 42.4015 146.356 42.4362C146.206 42.4652 146.07 42.5173 145.948 42.5926C145.826 42.668 145.728 42.7664 145.653 42.8881C145.583 43.004 145.548 43.1488 145.548 43.3226C145.548 43.4906 145.58 43.6326 145.644 43.7485C145.708 43.8585 145.797 43.9483 145.913 44.0179C146.029 44.0816 146.168 44.1279 146.33 44.1569C146.498 44.1859 146.684 44.2004 146.887 44.2004H147.773V42.471Z" fill="#D3AF4A"/>
<path d="M153.029 46.0688C153.434 46.0688 153.753 46.0022 153.985 45.8689C154.216 45.7299 154.332 45.5242 154.332 45.2519C154.332 45.0549 154.289 44.8985 154.202 44.7826C154.115 44.6667 154.005 44.5769 153.872 44.5132C153.744 44.4495 153.605 44.4089 153.454 44.3915C153.31 44.3684 153.176 44.3568 153.055 44.3568H152.429V43.8788H153.011C153.115 43.8788 153.234 43.8701 153.367 43.8527C153.507 43.8354 153.634 43.8006 153.75 43.7485C153.866 43.6963 153.964 43.6239 154.045 43.5312C154.126 43.4327 154.167 43.3052 154.167 43.1488C154.167 42.9982 154.132 42.8736 154.063 42.7751C153.999 42.6766 153.912 42.5984 153.802 42.5405C153.692 42.4826 153.564 42.442 153.42 42.4188C153.281 42.3957 153.139 42.3841 152.994 42.3841C152.664 42.3841 152.403 42.4188 152.212 42.4884C152.02 42.5521 151.89 42.6013 151.821 42.6361L151.69 42.1321C151.771 42.0915 151.925 42.0423 152.151 41.9843C152.377 41.9206 152.658 41.8887 152.994 41.8887C153.567 41.8887 154.002 41.993 154.297 42.2016C154.593 42.4101 154.741 42.7201 154.741 43.1314C154.741 43.3864 154.665 43.5949 154.515 43.7571C154.364 43.9136 154.187 44.0237 153.985 44.0874C154.268 44.1685 154.494 44.3046 154.662 44.4958C154.83 44.687 154.914 44.939 154.914 45.2519C154.914 45.698 154.755 46.0311 154.436 46.2513C154.118 46.4714 153.651 46.5815 153.037 46.5815C152.626 46.5815 152.296 46.5467 152.047 46.4772C151.797 46.4077 151.638 46.3556 151.569 46.3208L151.716 45.8081C151.734 45.8197 151.771 45.8399 151.829 45.8689C151.893 45.8921 151.98 45.921 152.09 45.9558C152.2 45.9848 152.333 46.0108 152.49 46.034C152.646 46.0572 152.826 46.0688 153.029 46.0688Z" fill="#D3AF4A"/>
<path d="M157.631 46.0688C157.851 46.0688 158.042 46.063 158.204 46.0514C158.372 46.034 158.514 46.0137 158.63 45.9906V44.4089C158.566 44.38 158.465 44.351 158.326 44.322C158.187 44.2873 157.996 44.2699 157.752 44.2699C157.613 44.2699 157.468 44.2815 157.318 44.3046C157.167 44.322 157.028 44.3655 156.901 44.435C156.773 44.4987 156.669 44.5885 156.588 44.7044C156.507 44.8203 156.466 44.9738 156.466 45.165C156.466 45.333 156.492 45.4749 156.544 45.5908C156.602 45.7067 156.681 45.7994 156.779 45.8689C156.883 45.9384 157.005 45.9906 157.144 46.0253C157.289 46.0543 157.451 46.0688 157.631 46.0688ZM157.579 41.88C157.874 41.88 158.123 41.9235 158.326 42.0104C158.534 42.0915 158.702 42.2074 158.83 42.358C158.957 42.5028 159.05 42.6766 159.108 42.8794C159.166 43.0822 159.195 43.3024 159.195 43.5399V46.3729C159.137 46.3903 159.053 46.4106 158.943 46.4338C158.833 46.4512 158.705 46.4714 158.561 46.4946C158.416 46.5178 158.253 46.5352 158.074 46.5467C157.9 46.5641 157.72 46.5728 157.535 46.5728C157.298 46.5728 157.077 46.5467 156.875 46.4946C156.678 46.4425 156.504 46.3614 156.353 46.2513C156.208 46.1354 156.092 45.9906 156.006 45.8168C155.924 45.6372 155.884 45.4199 155.884 45.165C155.884 44.9217 155.93 44.7131 156.023 44.5393C156.116 44.3655 156.246 44.2235 156.414 44.1135C156.582 43.9976 156.782 43.9136 157.014 43.8614C157.245 43.8093 157.497 43.7832 157.77 43.7832C157.851 43.7832 157.935 43.789 158.022 43.8006C158.114 43.8064 158.201 43.818 158.282 43.8354C158.369 43.8469 158.442 43.8614 158.5 43.8788C158.563 43.8904 158.607 43.902 158.63 43.9136V43.6355C158.63 43.4791 158.618 43.3284 158.595 43.1836C158.572 43.033 158.52 42.8997 158.439 42.7838C158.364 42.6622 158.253 42.5666 158.109 42.497C157.97 42.4217 157.784 42.3841 157.552 42.3841C157.222 42.3841 156.976 42.4072 156.814 42.4536C156.652 42.4999 156.533 42.5376 156.457 42.5666L156.379 42.0712C156.478 42.0249 156.628 41.9814 156.831 41.9409C157.04 41.9003 157.289 41.88 157.579 41.88Z" fill="#D3AF4A"/>
<path d="M166.189 46.4772H160.723V41.9843H161.287V45.9993H163.191V41.9843H163.756V45.9993H165.659V41.9843H166.224V45.9993H166.736V47.7199H166.189V46.4772Z" fill="#D3AF4A"/>
<path d="M170.895 42.7056C170.722 42.9142 170.519 43.1778 170.287 43.4964C170.061 43.8151 169.829 44.1511 169.592 44.5045C169.36 44.8579 169.137 45.2084 168.923 45.556C168.708 45.9037 168.523 46.2107 168.367 46.4772H167.836V41.9843H168.393V45.5821C168.532 45.333 168.703 45.0462 168.905 44.7218C169.114 44.3915 169.334 44.0613 169.566 43.7311C169.798 43.395 170.029 43.0735 170.261 42.7664C170.499 42.4594 170.719 42.1987 170.922 41.9843H171.452V46.4772H170.895V42.7056Z" fill="#D3AF4A"/>
<path d="M175.926 41.9843V42.4623H174.449V46.4772H173.884V42.4623H172.415V41.9843H175.926Z" fill="#D3AF4A"/>
<path d="M178.304 46.0688C178.524 46.0688 178.715 46.063 178.877 46.0514C179.045 46.034 179.187 46.0137 179.303 45.9906V44.4089C179.24 44.38 179.138 44.351 178.999 44.322C178.86 44.2873 178.669 44.2699 178.425 44.2699C178.286 44.2699 178.142 44.2815 177.991 44.3046C177.84 44.322 177.701 44.3655 177.574 44.435C177.446 44.4987 177.342 44.5885 177.261 44.7044C177.18 44.8203 177.139 44.9738 177.139 45.165C177.139 45.333 177.165 45.4749 177.218 45.5908C177.275 45.7067 177.354 45.7994 177.452 45.8689C177.556 45.9384 177.678 45.9906 177.817 46.0253C177.962 46.0543 178.124 46.0688 178.304 46.0688ZM178.252 41.88C178.547 41.88 178.796 41.9235 178.999 42.0104C179.208 42.0915 179.376 42.2074 179.503 42.358C179.631 42.5028 179.723 42.6766 179.781 42.8794C179.839 43.0822 179.868 43.3024 179.868 43.5399V46.3729C179.81 46.3903 179.726 46.4106 179.616 46.4338C179.506 46.4512 179.379 46.4714 179.234 46.4946C179.089 46.5178 178.927 46.5352 178.747 46.5467C178.573 46.5641 178.394 46.5728 178.208 46.5728C177.971 46.5728 177.751 46.5467 177.548 46.4946C177.351 46.4425 177.177 46.3614 177.026 46.2513C176.882 46.1354 176.766 45.9906 176.679 45.8168C176.598 45.6372 176.557 45.4199 176.557 45.165C176.557 44.9217 176.603 44.7131 176.696 44.5393C176.789 44.3655 176.919 44.2235 177.087 44.1135C177.255 43.9976 177.455 43.9136 177.687 43.8614C177.919 43.8093 178.171 43.7832 178.443 43.7832C178.524 43.7832 178.608 43.789 178.695 43.8006C178.788 43.8064 178.874 43.818 178.956 43.8354C179.043 43.8469 179.115 43.8614 179.173 43.8788C179.237 43.8904 179.28 43.902 179.303 43.9136V43.6355C179.303 43.4791 179.292 43.3284 179.268 43.1836C179.245 43.033 179.193 42.8997 179.112 42.7838C179.037 42.6622 178.927 42.5666 178.782 42.497C178.643 42.4217 178.457 42.3841 178.226 42.3841C177.895 42.3841 177.649 42.4072 177.487 42.4536C177.325 42.4999 177.206 42.5376 177.131 42.5666L177.052 42.0712C177.151 42.0249 177.302 41.9814 177.504 41.9409C177.713 41.9003 177.962 41.88 178.252 41.88Z" fill="#D3AF4A"/>
<path d="M182.195 46.1035C182.195 46.2368 182.152 46.3498 182.065 46.4425C181.984 46.5352 181.868 46.5815 181.717 46.5815C181.567 46.5815 181.448 46.5352 181.361 46.4425C181.28 46.3498 181.239 46.2368 181.239 46.1035C181.239 45.9703 181.28 45.8573 181.361 45.7646C181.448 45.6719 181.567 45.6256 181.717 45.6256C181.868 45.6256 181.984 45.6719 182.065 45.7646C182.152 45.8573 182.195 45.9703 182.195 46.1035Z" fill="#D3AF4A"/>
<path d="M42.1579 35.1604H180.817" stroke="#D3AF4A" stroke-width="2" stroke-miterlimit="10"/>
<path fill-rule="evenodd" clip-rule="evenodd" d="M0 35.9522H13.3445V35.0639H0V35.9522ZM0 34.5811L13.3445 34.6197V34.3687L0 34.4073V34.5811Z" fill="#D3AD4A"/>
<path fill-rule="evenodd" clip-rule="evenodd" d="M4.22923 17.7991C4.22923 17.7991 4.19061 17.1232 4.78928 16.4666C5.38795 15.7906 7.37707 15.7906 8.2461 15.5396C9.09583 15.2885 9.13445 14.6512 9.13445 14.6512V12.0634C9.13445 12.0634 9.11514 12.6814 8.2461 12.9518C7.39638 13.2028 5.40726 13.2028 4.78928 13.8788C4.20992 14.5354 4.22923 15.2113 4.22923 15.2113V17.7991Z" fill="#AB8B2F"/>
<path fill-rule="evenodd" clip-rule="evenodd" d="M9.11521 14.6705C9.11521 14.6705 9.15384 13.9946 8.57448 13.338C7.97582 12.6621 5.98669 12.6621 5.13696 12.411C4.28724 12.16 4.22931 11.5227 4.22931 11.5227V8.91559C4.22931 8.91559 4.26793 9.53357 5.13696 9.80393C5.98669 10.055 7.97582 10.055 8.57448 10.7309C9.15384 11.3875 9.11521 12.0634 9.11521 12.0634V14.6705Z" fill="#D3AF4A"/>
<path fill-rule="evenodd" clip-rule="evenodd" d="M4.22923 24.0754C4.22923 24.0754 4.19061 23.3995 4.78928 22.7429C5.38795 22.067 7.37707 22.067 8.2461 21.8159C9.09583 21.5649 9.13445 20.9276 9.13445 20.9276V18.3398C9.13445 18.3398 9.11514 18.9578 8.2461 19.2281C7.39638 19.4792 5.40726 19.4792 4.78928 20.1551C4.20992 20.8117 4.22923 21.4876 4.22923 21.4876V24.0754Z" fill="#AB8B2F"/>
<path fill-rule="evenodd" clip-rule="evenodd" d="M9.11521 20.9276C9.11521 20.9276 9.15384 20.2517 8.57448 19.5951C7.97582 18.9191 5.98669 18.9191 5.13696 18.6681C4.28724 18.417 4.22931 17.7797 4.22931 17.7797V15.192C4.22931 15.192 4.26793 15.8099 5.13696 16.0803C5.98669 16.3314 7.97582 16.3314 8.57448 17.0073C9.15384 17.6639 9.11521 18.3398 9.11521 18.3398V20.9276Z" fill="#D3AF4A"/>
<path fill-rule="evenodd" clip-rule="evenodd" d="M4.22923 30.3518C4.22923 30.3518 4.19061 29.6759 4.78928 29.0193C5.38795 28.3433 7.37707 28.3433 8.2461 28.0923C9.09583 27.8412 9.13445 27.2039 9.13445 27.2039V24.6161C9.13445 24.6161 9.11514 25.2341 8.2461 25.5045C7.39638 25.7555 5.40726 25.7555 4.78928 26.4315C4.20992 27.0881 4.22923 27.764 4.22923 27.764V30.3518Z" fill="#AB8B2F"/>
</g>
<defs>
<clipPath id="clip0_3510_38501">
<rect width="192.308" height="50" fill="white"/>
</clipPath>
</defs>
</svg>
